ISO-10303-21;
HEADER;
/* Generated by software containing ST-Developer
 * from STEP Tools, Inc. (www.steptools.com) 
 */

FILE_DESCRIPTION(
/* description */ (''),
/* implementation_level */ '2;1');

FILE_NAME(
/* name */ 'BT2.0 Connector.step',
/* time_stamp */ '2026-08-02T23:47:33+08:00',
/* author */ (''),
/* organization */ (''),
/* preprocessor_version */ 'ST-DEVELOPER v20.1',
/* originating_system */ 'Autodesk Translation Framework v15.8.0.0',
/* authorisation */ '');

FILE_SCHEMA (('AUTOMOTIVE_DESIGN { 1 0 10303 214 3 1 1 }'));
ENDSEC;

DATA;
#10=MECHANICAL_DESIGN_GEOMETRIC_PRESENTATION_REPRESENTATION('',(#17,#18,
#19),#1631);
#11=ITEM_DEFINED_TRANSFORMATION($,$,#947,#1037);
#12=(
REPRESENTATION_RELATIONSHIP($,$,#1642,#1641)
REPRESENTATION_RELATIONSHIP_WITH_TRANSFORMATION(#11)
SHAPE_REPRESENTATION_RELATIONSHIP()
);
#13=CONTEXT_DEPENDENT_SHAPE_REPRESENTATION(#12,#1640);
#14=NEXT_ASSEMBLY_USAGE_OCCURRENCE('BT2.0 Male Retrofit:1',
'BT2.0 Male Retrofit:1','BT2.0 Male Retrofit:1',#1644,#1645,
'BT2.0 Male Retrofit:1');
#15=SHAPE_REPRESENTATION_RELATIONSHIP('SRR','None',#1642,#16);
#16=ADVANCED_BREP_SHAPE_REPRESENTATION('',(#20,#21,#22),#1630);
#17=STYLED_ITEM('',(#1656),#20);
#18=STYLED_ITEM('',(#1656),#21);
#19=STYLED_ITEM('',(#1657),#22);
#20=MANIFOLD_SOLID_BREP('Body1',#931);
#21=MANIFOLD_SOLID_BREP('Body2',#932);
#22=MANIFOLD_SOLID_BREP('Body3',#933);
#23=CONICAL_SURFACE('',#962,0.549999964237213,0.785398163397448);
#24=CONICAL_SURFACE('',#982,0.550000008940697,0.785398163397448);
#25=FACE_BOUND('',#286,.T.);
#26=FACE_BOUND('',#293,.T.);
#27=FACE_BOUND('',#298,.T.);
#28=FACE_BOUND('',#306,.T.);
#29=FACE_BOUND('',#328,.T.);
#30=FACE_BOUND('',#329,.T.);
#31=FACE_BOUND('',#331,.T.);
#32=FACE_BOUND('',#332,.T.);
#33=FACE_BOUND('',#333,.T.);
#34=FACE_BOUND('',#334,.T.);
#35=FACE_BOUND('',#346,.T.);
#36=(
BOUNDED_SURFACE()
B_SPLINE_SURFACE(2,2,((#1323,#1324,#1325,#1326,#1327,#1328,#1329,#1330,
#1331),(#1332,#1333,#1334,#1335,#1336,#1337,#1338,#1339,#1340),(#1341,#1342,
#1343,#1344,#1345,#1346,#1347,#1348,#1349)),.UNSPECIFIED.,.F.,.T.,.F.)
B_SPLINE_SURFACE_WITH_KNOTS((3,3),(3,2,2,2,3),(-1.76366476051063E-14,1.57079632679491),
(-3.14159265358979,-1.5707963267949,0.,1.5707963267949,3.14159265358979),
 .UNSPECIFIED.)
GEOMETRIC_REPRESENTATION_ITEM()
RATIONAL_B_SPLINE_SURFACE(((1.,0.707106781186548,1.,0.707106781186548,1.,
0.707106781186548,1.,0.707106781186548,1.),(0.70710678118654,0.499999999999995,
0.70710678118654,0.499999999999995,0.70710678118654,0.499999999999995,0.70710678118654,
0.499999999999995,0.70710678118654),(1.,0.707106781186548,1.,0.707106781186548,
1.,0.707106781186548,1.,0.707106781186548,1.)))
REPRESENTATION_ITEM('')
SURFACE()
);
#37=(
BOUNDED_SURFACE()
B_SPLINE_SURFACE(2,2,((#1393,#1394,#1395,#1396,#1397,#1398,#1399,#1400,
#1401),(#1402,#1403,#1404,#1405,#1406,#1407,#1408,#1409,#1410),(#1411,#1412,
#1413,#1414,#1415,#1416,#1417,#1418,#1419)),.UNSPECIFIED.,.F.,.T.,.F.)
B_SPLINE_SURFACE_WITH_KNOTS((3,3),(3,2,2,2,3),(-1.14724834659621E-14,1.5707963267949),
(-3.14159265358979,-1.5707963267949,0.,1.5707963267949,3.14159265358979),
 .UNSPECIFIED.)
GEOMETRIC_REPRESENTATION_ITEM()
RATIONAL_B_SPLINE_SURFACE(((1.,0.707106781186548,1.,0.707106781186548,1.,
0.707106781186548,1.,0.707106781186548,1.),(0.707106781186552,0.500000000000003,
0.707106781186552,0.500000000000003,0.707106781186552,0.500000000000003,
0.707106781186552,0.500000000000003,0.707106781186552),(1.,0.707106781186548,
1.,0.707106781186548,1.,0.707106781186548,1.,0.707106781186548,1.)))
REPRESENTATION_ITEM('')
SURFACE()
);
#38=LINE('',#1319,#126);
#39=LINE('',#1354,#127);
#40=LINE('',#1363,#128);
#41=LINE('',#1366,#129);
#42=LINE('',#1371,#130);
#43=LINE('',#1374,#131);
#44=LINE('',#1376,#132);
#45=LINE('',#1379,#133);
#46=LINE('',#1389,#134);
#47=LINE('',#1428,#135);
#48=LINE('',#1431,#136);
#49=LINE('',#1436,#137);
#50=LINE('',#1440,#138);
#51=LINE('',#1444,#139);
#52=LINE('',#1447,#140);
#53=LINE('',#1449,#141);
#54=LINE('',#1456,#142);
#55=LINE('',#1462,#143);
#56=LINE('',#1467,#144);
#57=LINE('',#1469,#145);
#58=LINE('',#1471,#146);
#59=LINE('',#1472,#147);
#60=LINE('',#1475,#148);
#61=LINE('',#1477,#149);
#62=LINE('',#1478,#150);
#63=LINE('',#1481,#151);
#64=LINE('',#1483,#152);
#65=LINE('',#1484,#153);
#66=LINE('',#1487,#154);
#67=LINE('',#1489,#155);
#68=LINE('',#1490,#156);
#69=LINE('',#1493,#157);
#70=LINE('',#1495,#158);
#71=LINE('',#1496,#159);
#72=LINE('',#1499,#160);
#73=LINE('',#1501,#161);
#74=LINE('',#1502,#162);
#75=LINE('',#1505,#163);
#76=LINE('',#1507,#164);
#77=LINE('',#1508,#165);
#78=LINE('',#1511,#166);
#79=LINE('',#1513,#167);
#80=LINE('',#1514,#168);
#81=LINE('',#1517,#169);
#82=LINE('',#1519,#170);
#83=LINE('',#1520,#171);
#84=LINE('',#1523,#172);
#85=LINE('',#1525,#173);
#86=LINE('',#1526,#174);
#87=LINE('',#1529,#175);
#88=LINE('',#1531,#176);
#89=LINE('',#1532,#177);
#90=LINE('',#1534,#178);
#91=LINE('',#1535,#179);
#92=LINE('',#1540,#180);
#93=LINE('',#1542,#181);
#94=LINE('',#1544,#182);
#95=LINE('',#1545,#183);
#96=LINE('',#1548,#184);
#97=LINE('',#1550,#185);
#98=LINE('',#1551,#186);
#99=LINE('',#1554,#187);
#100=LINE('',#1556,#188);
#101=LINE('',#1557,#189);
#102=LINE('',#1559,#190);
#103=LINE('',#1560,#191);
#104=LINE('',#1565,#192);
#105=LINE('',#1567,#193);
#106=LINE('',#1569,#194);
#107=LINE('',#1576,#195);
#108=LINE('',#1580,#196);
#109=LINE('',#1583,#197);
#110=LINE('',#1586,#198);
#111=LINE('',#1588,#199);
#112=LINE('',#1589,#200);
#113=LINE('',#1592,#201);
#114=LINE('',#1596,#202);
#115=LINE('',#1597,#203);
#116=LINE('',#1600,#204);
#117=LINE('',#1602,#205);
#118=LINE('',#1603,#206);
#119=LINE('',#1606,#207);
#120=LINE('',#1607,#208);
#121=LINE('',#1610,#209);
#122=LINE('',#1611,#210);
#123=LINE('',#1617,#211);
#124=LINE('',#1620,#212);
#125=LINE('',#1621,#213);
#126=VECTOR('',#1050,0.5);
#127=VECTOR('',#1059,10.);
#128=VECTOR('',#1070,0.799999959766865);
#129=VECTOR('',#1075,0.549999964237213);
#130=VECTOR('',#1080,0.65);
#131=VECTOR('',#1083,10.);
#132=VECTOR('',#1084,10.);
#133=VECTOR('',#1089,10.);
#134=VECTOR('',#1102,0.5);
#135=VECTOR('',#1117,0.800000004470348);
#136=VECTOR('',#1122,0.550000008940697);
#137=VECTOR('',#1127,0.65);
#138=VECTOR('',#1130,10.);
#139=VECTOR('',#1133,10.);
#140=VECTOR('',#1138,10.);
#141=VECTOR('',#1141,10.);
#142=VECTOR('',#1150,0.800000004470348);
#143=VECTOR('',#1157,0.799999959766865);
#144=VECTOR('',#1162,10.);
#145=VECTOR('',#1163,10.);
#146=VECTOR('',#1164,10.);
#147=VECTOR('',#1165,10.);
#148=VECTOR('',#1168,10.);
#149=VECTOR('',#1169,10.);
#150=VECTOR('',#1170,10.);
#151=VECTOR('',#1173,10.);
#152=VECTOR('',#1174,10.);
#153=VECTOR('',#1175,10.);
#154=VECTOR('',#1178,10.);
#155=VECTOR('',#1179,10.);
#156=VECTOR('',#1180,10.);
#157=VECTOR('',#1183,10.);
#158=VECTOR('',#1184,10.);
#159=VECTOR('',#1185,10.);
#160=VECTOR('',#1188,10.);
#161=VECTOR('',#1189,10.);
#162=VECTOR('',#1190,10.);
#163=VECTOR('',#1193,10.);
#164=VECTOR('',#1194,10.);
#165=VECTOR('',#1195,10.);
#166=VECTOR('',#1198,10.);
#167=VECTOR('',#1199,10.);
#168=VECTOR('',#1200,10.);
#169=VECTOR('',#1203,10.);
#170=VECTOR('',#1204,10.);
#171=VECTOR('',#1205,10.);
#172=VECTOR('',#1208,10.);
#173=VECTOR('',#1209,10.);
#174=VECTOR('',#1210,10.);
#175=VECTOR('',#1213,10.);
#176=VECTOR('',#1214,10.);
#177=VECTOR('',#1215,10.);
#178=VECTOR('',#1218,10.);
#179=VECTOR('',#1219,10.);
#180=VECTOR('',#1224,10.);
#181=VECTOR('',#1225,10.);
#182=VECTOR('',#1226,10.);
#183=VECTOR('',#1227,10.);
#184=VECTOR('',#1230,9.99999999999998);
#185=VECTOR('',#1231,9.99999999999998);
#186=VECTOR('',#1232,10.);
#187=VECTOR('',#1235,9.99999999999998);
#188=VECTOR('',#1236,9.99999999999998);
#189=VECTOR('',#1237,10.);
#190=VECTOR('',#1240,9.99999999999998);
#191=VECTOR('',#1241,9.99999999999998);
#192=VECTOR('',#1246,10.);
#193=VECTOR('',#1247,10.);
#194=VECTOR('',#1248,10.);
#195=VECTOR('',#1255,10.);
#196=VECTOR('',#1258,10.);
#197=VECTOR('',#1261,10.);
#198=VECTOR('',#1264,10.);
#199=VECTOR('',#1265,10.);
#200=VECTOR('',#1266,10.);
#201=VECTOR('',#1269,10.);
#202=VECTOR('',#1274,10.);
#203=VECTOR('',#1275,10.);
#204=VECTOR('',#1278,10.);
#205=VECTOR('',#1279,10.);
#206=VECTOR('',#1280,10.);
#207=VECTOR('',#1283,10.);
#208=VECTOR('',#1284,10.);
#209=VECTOR('',#1287,10.);
#210=VECTOR('',#1288,10.);
#211=VECTOR('',#1297,10.);
#212=VECTOR('',#1300,10.);
#213=VECTOR('',#1301,10.);
#214=CYLINDRICAL_SURFACE('',#950,0.5);
#215=CYLINDRICAL_SURFACE('',#960,0.799999959766865);
#216=CYLINDRICAL_SURFACE('',#963,0.65);
#217=CYLINDRICAL_SURFACE('',#972,0.5);
#218=CYLINDRICAL_SURFACE('',#980,0.800000004470348);
#219=CYLINDRICAL_SURFACE('',#983,0.65);
#220=CYLINDRICAL_SURFACE('',#992,0.800000004470348);
#221=CYLINDRICAL_SURFACE('',#995,0.799999959766865);
#222=CYLINDRICAL_SURFACE('',#1023,0.5);
#223=CYLINDRICAL_SURFACE('',#1029,1.55);
#224=CYLINDRICAL_SURFACE('',#1031,0.5);
#225=CYLINDRICAL_SURFACE('',#1034,2.1);
#226=FACE_OUTER_BOUND('',#281,.T.);
#227=FACE_OUTER_BOUND('',#282,.T.);
#228=FACE_OUTER_BOUND('',#283,.T.);
#229=FACE_OUTER_BOUND('',#284,.T.);
#230=FACE_OUTER_BOUND('',#285,.T.);
#231=FACE_OUTER_BOUND('',#287,.T.);
#232=FACE_OUTER_BOUND('',#288,.T.);
#233=FACE_OUTER_BOUND('',#289,.T.);
#234=FACE_OUTER_BOUND('',#290,.T.);
#235=FACE_OUTER_BOUND('',#291,.T.);
#236=FACE_OUTER_BOUND('',#292,.T.);
#237=FACE_OUTER_BOUND('',#294,.T.);
#238=FACE_OUTER_BOUND('',#295,.T.);
#239=FACE_OUTER_BOUND('',#296,.T.);
#240=FACE_OUTER_BOUND('',#297,.T.);
#241=FACE_OUTER_BOUND('',#299,.T.);
#242=FACE_OUTER_BOUND('',#300,.T.);
#243=FACE_OUTER_BOUND('',#301,.T.);
#244=FACE_OUTER_BOUND('',#302,.T.);
#245=FACE_OUTER_BOUND('',#303,.T.);
#246=FACE_OUTER_BOUND('',#304,.T.);
#247=FACE_OUTER_BOUND('',#305,.T.);
#248=FACE_OUTER_BOUND('',#307,.T.);
#249=FACE_OUTER_BOUND('',#308,.T.);
#250=FACE_OUTER_BOUND('',#309,.T.);
#251=FACE_OUTER_BOUND('',#310,.T.);
#252=FACE_OUTER_BOUND('',#311,.T.);
#253=FACE_OUTER_BOUND('',#312,.T.);
#254=FACE_OUTER_BOUND('',#313,.T.);
#255=FACE_OUTER_BOUND('',#314,.T.);
#256=FACE_OUTER_BOUND('',#315,.T.);
#257=FACE_OUTER_BOUND('',#316,.T.);
#258=FACE_OUTER_BOUND('',#317,.T.);
#259=FACE_OUTER_BOUND('',#318,.T.);
#260=FACE_OUTER_BOUND('',#319,.T.);
#261=FACE_OUTER_BOUND('',#320,.T.);
#262=FACE_OUTER_BOUND('',#321,.T.);
#263=FACE_OUTER_BOUND('',#322,.T.);
#264=FACE_OUTER_BOUND('',#323,.T.);
#265=FACE_OUTER_BOUND('',#324,.T.);
#266=FACE_OUTER_BOUND('',#325,.T.);
#267=FACE_OUTER_BOUND('',#326,.T.);
#268=FACE_OUTER_BOUND('',#327,.T.);
#269=FACE_OUTER_BOUND('',#330,.T.);
#270=FACE_OUTER_BOUND('',#335,.T.);
#271=FACE_OUTER_BOUND('',#336,.T.);
#272=FACE_OUTER_BOUND('',#337,.T.);
#273=FACE_OUTER_BOUND('',#338,.T.);
#274=FACE_OUTER_BOUND('',#339,.T.);
#275=FACE_OUTER_BOUND('',#340,.T.);
#276=FACE_OUTER_BOUND('',#341,.T.);
#277=FACE_OUTER_BOUND('',#342,.T.);
#278=FACE_OUTER_BOUND('',#343,.T.);
#279=FACE_OUTER_BOUND('',#344,.T.);
#280=FACE_OUTER_BOUND('',#345,.T.);
#281=EDGE_LOOP('',(#589));
#282=EDGE_LOOP('',(#590,#591,#592,#593,#594));
#283=EDGE_LOOP('',(#595,#596,#597,#598));
#284=EDGE_LOOP('',(#599,#600));
#285=EDGE_LOOP('',(#601));
#286=EDGE_LOOP('',(#602));
#287=EDGE_LOOP('',(#603,#604,#605,#606));
#288=EDGE_LOOP('',(#607,#608,#609,#610,#611));
#289=EDGE_LOOP('',(#612,#613,#614,#615,#616,#617,#618,#619));
#290=EDGE_LOOP('',(#620,#621,#622));
#291=EDGE_LOOP('',(#623,#624,#625,#626));
#292=EDGE_LOOP('',(#627));
#293=EDGE_LOOP('',(#628));
#294=EDGE_LOOP('',(#629));
#295=EDGE_LOOP('',(#630,#631,#632,#633,#634));
#296=EDGE_LOOP('',(#635,#636,#637,#638));
#297=EDGE_LOOP('',(#639));
#298=EDGE_LOOP('',(#640));
#299=EDGE_LOOP('',(#641,#642,#643,#644));
#300=EDGE_LOOP('',(#645,#646,#647,#648,#649));
#301=EDGE_LOOP('',(#650,#651,#652,#653,#654,#655,#656,#657));
#302=EDGE_LOOP('',(#658,#659,#660));
#303=EDGE_LOOP('',(#661,#662));
#304=EDGE_LOOP('',(#663,#664,#665,#666));
#305=EDGE_LOOP('',(#667));
#306=EDGE_LOOP('',(#668));
#307=EDGE_LOOP('',(#669,#670,#671,#672));
#308=EDGE_LOOP('',(#673,#674,#675,#676));
#309=EDGE_LOOP('',(#677,#678,#679,#680));
#310=EDGE_LOOP('',(#681,#682,#683,#684));
#311=EDGE_LOOP('',(#685,#686,#687,#688));
#312=EDGE_LOOP('',(#689,#690,#691,#692));
#313=EDGE_LOOP('',(#693,#694,#695,#696));
#314=EDGE_LOOP('',(#697,#698,#699,#700));
#315=EDGE_LOOP('',(#701,#702,#703,#704));
#316=EDGE_LOOP('',(#705,#706,#707,#708));
#317=EDGE_LOOP('',(#709,#710,#711,#712));
#318=EDGE_LOOP('',(#713,#714,#715,#716));
#319=EDGE_LOOP('',(#717,#718,#719,#720));
#320=EDGE_LOOP('',(#721,#722,#723,#724));
#321=EDGE_LOOP('',(#725,#726,#727,#728,#729,#730,#731,#732,#733,#734,#735,
#736));
#322=EDGE_LOOP('',(#737,#738,#739,#740));
#323=EDGE_LOOP('',(#741,#742,#743,#744));
#324=EDGE_LOOP('',(#745,#746,#747,#748));
#325=EDGE_LOOP('',(#749,#750,#751,#752));
#326=EDGE_LOOP('',(#753,#754,#755,#756));
#327=EDGE_LOOP('',(#757,#758,#759,#760));
#328=EDGE_LOOP('',(#761));
#329=EDGE_LOOP('',(#762));
#330=EDGE_LOOP('',(#763,#764,#765,#766,#767,#768));
#331=EDGE_LOOP('',(#769));
#332=EDGE_LOOP('',(#770));
#333=EDGE_LOOP('',(#771,#772,#773,#774,#775,#776,#777,#778,#779,#780,#781,
#782));
#334=EDGE_LOOP('',(#783,#784,#785,#786));
#335=EDGE_LOOP('',(#787,#788,#789,#790));
#336=EDGE_LOOP('',(#791,#792,#793,#794));
#337=EDGE_LOOP('',(#795,#796,#797,#798));
#338=EDGE_LOOP('',(#799,#800,#801,#802));
#339=EDGE_LOOP('',(#803,#804,#805,#806));
#340=EDGE_LOOP('',(#807,#808,#809,#810));
#341=EDGE_LOOP('',(#811,#812,#813,#814));
#342=EDGE_LOOP('',(#815,#816,#817,#818));
#343=EDGE_LOOP('',(#819,#820,#821,#822));
#344=EDGE_LOOP('',(#823,#824,#825,#826));
#345=EDGE_LOOP('',(#827,#828,#829,#830,#831,#832));
#346=EDGE_LOOP('',(#833,#834,#835,#836));
#347=CIRCLE('',#949,0.2);
#348=CIRCLE('',#951,0.5);
#349=CIRCLE('',#952,0.5);
#350=CIRCLE('',#953,0.5);
#351=CIRCLE('',#954,0.299999999999996);
#352=CIRCLE('',#956,0.65);
#353=CIRCLE('',#958,0.799999959766865);
#354=CIRCLE('',#959,0.599999964237213);
#355=CIRCLE('',#961,0.799999959766865);
#356=CIRCLE('',#964,0.65);
#357=CIRCLE('',#965,0.65);
#358=CIRCLE('',#966,0.65);
#359=CIRCLE('',#971,0.2);
#360=CIRCLE('',#973,0.5);
#361=CIRCLE('',#974,0.5);
#362=CIRCLE('',#975,0.5);
#363=CIRCLE('',#976,0.3);
#364=CIRCLE('',#978,0.800000004470348);
#365=CIRCLE('',#979,0.600000008940697);
#366=CIRCLE('',#981,0.800000004470348);
#367=CIRCLE('',#984,0.65);
#368=CIRCLE('',#985,0.65);
#369=CIRCLE('',#986,0.65);
#370=CIRCLE('',#987,0.65);
#371=CIRCLE('',#993,0.800000004470348);
#372=CIRCLE('',#994,0.800000004470348);
#373=CIRCLE('',#996,0.799999959766865);
#374=CIRCLE('',#997,0.799999959766865);
#375=CIRCLE('',#1017,1.55);
#376=CIRCLE('',#1019,0.5);
#377=CIRCLE('',#1020,0.5);
#378=CIRCLE('',#1021,2.1);
#379=CIRCLE('',#1024,0.5);
#380=CIRCLE('',#1030,1.55);
#381=CIRCLE('',#1032,0.5);
#382=CIRCLE('',#1035,2.1);
#383=VERTEX_POINT('',#1313);
#384=VERTEX_POINT('',#1316);
#385=VERTEX_POINT('',#1318);
#386=VERTEX_POINT('',#1320);
#387=VERTEX_POINT('',#1352);
#388=VERTEX_POINT('',#1353);
#389=VERTEX_POINT('',#1357);
#390=VERTEX_POINT('',#1359);
#391=VERTEX_POINT('',#1362);
#392=VERTEX_POINT('',#1368);
#393=VERTEX_POINT('',#1370);
#394=VERTEX_POINT('',#1372);
#395=VERTEX_POINT('',#1375);
#396=VERTEX_POINT('',#1383);
#397=VERTEX_POINT('',#1386);
#398=VERTEX_POINT('',#1388);
#399=VERTEX_POINT('',#1390);
#400=VERTEX_POINT('',#1422);
#401=VERTEX_POINT('',#1424);
#402=VERTEX_POINT('',#1427);
#403=VERTEX_POINT('',#1433);
#404=VERTEX_POINT('',#1435);
#405=VERTEX_POINT('',#1437);
#406=VERTEX_POINT('',#1439);
#407=VERTEX_POINT('',#1441);
#408=VERTEX_POINT('',#1443);
#409=VERTEX_POINT('',#1453);
#410=VERTEX_POINT('',#1455);
#411=VERTEX_POINT('',#1459);
#412=VERTEX_POINT('',#1461);
#413=VERTEX_POINT('',#1465);
#414=VERTEX_POINT('',#1466);
#415=VERTEX_POINT('',#1468);
#416=VERTEX_POINT('',#1470);
#417=VERTEX_POINT('',#1474);
#418=VERTEX_POINT('',#1476);
#419=VERTEX_POINT('',#1480);
#420=VERTEX_POINT('',#1482);
#421=VERTEX_POINT('',#1486);
#422=VERTEX_POINT('',#1488);
#423=VERTEX_POINT('',#1492);
#424=VERTEX_POINT('',#1494);
#425=VERTEX_POINT('',#1498);
#426=VERTEX_POINT('',#1500);
#427=VERTEX_POINT('',#1504);
#428=VERTEX_POINT('',#1506);
#429=VERTEX_POINT('',#1510);
#430=VERTEX_POINT('',#1512);
#431=VERTEX_POINT('',#1516);
#432=VERTEX_POINT('',#1518);
#433=VERTEX_POINT('',#1522);
#434=VERTEX_POINT('',#1524);
#435=VERTEX_POINT('',#1528);
#436=VERTEX_POINT('',#1530);
#437=VERTEX_POINT('',#1538);
#438=VERTEX_POINT('',#1539);
#439=VERTEX_POINT('',#1541);
#440=VERTEX_POINT('',#1543);
#441=VERTEX_POINT('',#1547);
#442=VERTEX_POINT('',#1549);
#443=VERTEX_POINT('',#1553);
#444=VERTEX_POINT('',#1555);
#445=VERTEX_POINT('',#1563);
#446=VERTEX_POINT('',#1564);
#447=VERTEX_POINT('',#1566);
#448=VERTEX_POINT('',#1568);
#449=VERTEX_POINT('',#1572);
#450=VERTEX_POINT('',#1573);
#451=VERTEX_POINT('',#1575);
#452=VERTEX_POINT('',#1577);
#453=VERTEX_POINT('',#1579);
#454=VERTEX_POINT('',#1581);
#455=VERTEX_POINT('',#1585);
#456=VERTEX_POINT('',#1587);
#457=VERTEX_POINT('',#1591);
#458=VERTEX_POINT('',#1595);
#459=VERTEX_POINT('',#1599);
#460=VERTEX_POINT('',#1601);
#461=VERTEX_POINT('',#1605);
#462=VERTEX_POINT('',#1609);
#463=VERTEX_POINT('',#1615);
#464=VERTEX_POINT('',#1619);
#465=EDGE_CURVE('',#383,#383,#347,.T.);
#466=EDGE_CURVE('',#384,#384,#348,.T.);
#467=EDGE_CURVE('',#384,#385,#38,.T.);
#468=EDGE_CURVE('',#385,#386,#349,.F.);
#469=EDGE_CURVE('',#386,#385,#350,.F.);
#470=EDGE_CURVE('',#384,#383,#351,.T.);
#471=EDGE_CURVE('',#387,#388,#39,.T.);
#472=EDGE_CURVE('',#388,#387,#352,.T.);
#473=EDGE_CURVE('',#389,#389,#353,.T.);
#474=EDGE_CURVE('',#390,#390,#354,.T.);
#475=EDGE_CURVE('',#389,#391,#40,.T.);
#476=EDGE_CURVE('',#391,#391,#355,.T.);
#477=EDGE_CURVE('',#390,#386,#41,.T.);
#478=EDGE_CURVE('',#392,#392,#356,.T.);
#479=EDGE_CURVE('',#392,#393,#42,.T.);
#480=EDGE_CURVE('',#393,#394,#357,.T.);
#481=EDGE_CURVE('',#394,#387,#43,.T.);
#482=EDGE_CURVE('',#388,#395,#44,.T.);
#483=EDGE_CURVE('',#395,#393,#358,.T.);
#484=EDGE_CURVE('',#394,#395,#45,.T.);
#485=EDGE_CURVE('',#396,#396,#359,.T.);
#486=EDGE_CURVE('',#397,#397,#360,.T.);
#487=EDGE_CURVE('',#397,#398,#46,.T.);
#488=EDGE_CURVE('',#398,#399,#361,.F.);
#489=EDGE_CURVE('',#399,#398,#362,.F.);
#490=EDGE_CURVE('',#397,#396,#363,.T.);
#491=EDGE_CURVE('',#400,#400,#364,.T.);
#492=EDGE_CURVE('',#401,#401,#365,.T.);
#493=EDGE_CURVE('',#400,#402,#47,.T.);
#494=EDGE_CURVE('',#402,#402,#366,.T.);
#495=EDGE_CURVE('',#401,#399,#48,.T.);
#496=EDGE_CURVE('',#403,#403,#367,.T.);
#497=EDGE_CURVE('',#403,#404,#49,.T.);
#498=EDGE_CURVE('',#405,#404,#368,.T.);
#499=EDGE_CURVE('',#405,#406,#50,.T.);
#500=EDGE_CURVE('',#406,#407,#369,.T.);
#501=EDGE_CURVE('',#407,#408,#51,.T.);
#502=EDGE_CURVE('',#404,#408,#370,.T.);
#503=EDGE_CURVE('',#408,#405,#52,.T.);
#504=EDGE_CURVE('',#407,#406,#53,.T.);
#505=EDGE_CURVE('',#409,#409,#371,.T.);
#506=EDGE_CURVE('',#409,#410,#54,.T.);
#507=EDGE_CURVE('',#410,#410,#372,.T.);
#508=EDGE_CURVE('',#411,#411,#373,.T.);
#509=EDGE_CURVE('',#411,#412,#55,.T.);
#510=EDGE_CURVE('',#412,#412,#374,.T.);
#511=EDGE_CURVE('',#413,#414,#56,.T.);
#512=EDGE_CURVE('',#413,#415,#57,.T.);
#513=EDGE_CURVE('',#416,#415,#58,.T.);
#514=EDGE_CURVE('',#414,#416,#59,.T.);
#515=EDGE_CURVE('',#414,#417,#60,.T.);
#516=EDGE_CURVE('',#418,#416,#61,.T.);
#517=EDGE_CURVE('',#417,#418,#62,.T.);
#518=EDGE_CURVE('',#417,#419,#63,.T.);
#519=EDGE_CURVE('',#420,#418,#64,.T.);
#520=EDGE_CURVE('',#419,#420,#65,.T.);
#521=EDGE_CURVE('',#419,#421,#66,.T.);
#522=EDGE_CURVE('',#422,#420,#67,.T.);
#523=EDGE_CURVE('',#421,#422,#68,.T.);
#524=EDGE_CURVE('',#421,#423,#69,.T.);
#525=EDGE_CURVE('',#424,#422,#70,.T.);
#526=EDGE_CURVE('',#423,#424,#71,.T.);
#527=EDGE_CURVE('',#423,#425,#72,.T.);
#528=EDGE_CURVE('',#426,#424,#73,.T.);
#529=EDGE_CURVE('',#425,#426,#74,.T.);
#530=EDGE_CURVE('',#425,#427,#75,.T.);
#531=EDGE_CURVE('',#428,#426,#76,.T.);
#532=EDGE_CURVE('',#427,#428,#77,.T.);
#533=EDGE_CURVE('',#427,#429,#78,.T.);
#534=EDGE_CURVE('',#430,#428,#79,.T.);
#535=EDGE_CURVE('',#429,#430,#80,.T.);
#536=EDGE_CURVE('',#429,#431,#81,.T.);
#537=EDGE_CURVE('',#432,#430,#82,.T.);
#538=EDGE_CURVE('',#431,#432,#83,.T.);
#539=EDGE_CURVE('',#431,#433,#84,.T.);
#540=EDGE_CURVE('',#434,#432,#85,.T.);
#541=EDGE_CURVE('',#433,#434,#86,.T.);
#542=EDGE_CURVE('',#433,#435,#87,.T.);
#543=EDGE_CURVE('',#436,#434,#88,.T.);
#544=EDGE_CURVE('',#435,#436,#89,.T.);
#545=EDGE_CURVE('',#435,#413,#90,.T.);
#546=EDGE_CURVE('',#415,#436,#91,.T.);
#547=EDGE_CURVE('',#437,#438,#92,.T.);
#548=EDGE_CURVE('',#437,#439,#93,.T.);
#549=EDGE_CURVE('',#440,#439,#94,.T.);
#550=EDGE_CURVE('',#438,#440,#95,.T.);
#551=EDGE_CURVE('',#438,#441,#96,.T.);
#552=EDGE_CURVE('',#442,#440,#97,.T.);
#553=EDGE_CURVE('',#441,#442,#98,.T.);
#554=EDGE_CURVE('',#441,#443,#99,.T.);
#555=EDGE_CURVE('',#444,#442,#100,.T.);
#556=EDGE_CURVE('',#443,#444,#101,.T.);
#557=EDGE_CURVE('',#443,#437,#102,.T.);
#558=EDGE_CURVE('',#439,#444,#103,.T.);
#559=EDGE_CURVE('',#445,#446,#104,.T.);
#560=EDGE_CURVE('',#447,#445,#105,.T.);
#561=EDGE_CURVE('',#448,#447,#106,.T.);
#562=EDGE_CURVE('',#446,#448,#375,.T.);
#563=EDGE_CURVE('',#449,#450,#376,.T.);
#564=EDGE_CURVE('',#451,#449,#107,.T.);
#565=EDGE_CURVE('',#452,#451,#377,.T.);
#566=EDGE_CURVE('',#453,#452,#108,.T.);
#567=EDGE_CURVE('',#454,#453,#378,.T.);
#568=EDGE_CURVE('',#450,#454,#109,.T.);
#569=EDGE_CURVE('',#449,#455,#110,.T.);
#570=EDGE_CURVE('',#456,#455,#111,.T.);
#571=EDGE_CURVE('',#451,#456,#112,.T.);
#572=EDGE_CURVE('',#450,#457,#113,.T.);
#573=EDGE_CURVE('',#455,#457,#379,.T.);
#574=EDGE_CURVE('',#454,#458,#114,.T.);
#575=EDGE_CURVE('',#457,#458,#115,.T.);
#576=EDGE_CURVE('',#447,#459,#116,.T.);
#577=EDGE_CURVE('',#460,#459,#117,.T.);
#578=EDGE_CURVE('',#448,#460,#118,.T.);
#579=EDGE_CURVE('',#445,#461,#119,.T.);
#580=EDGE_CURVE('',#459,#461,#120,.T.);
#581=EDGE_CURVE('',#446,#462,#121,.T.);
#582=EDGE_CURVE('',#461,#462,#122,.T.);
#583=EDGE_CURVE('',#462,#460,#380,.T.);
#584=EDGE_CURVE('',#463,#456,#381,.T.);
#585=EDGE_CURVE('',#452,#463,#123,.T.);
#586=EDGE_CURVE('',#464,#463,#124,.T.);
#587=EDGE_CURVE('',#453,#464,#125,.T.);
#588=EDGE_CURVE('',#458,#464,#382,.T.);
#589=ORIENTED_EDGE('',*,*,#465,.F.);
#590=ORIENTED_EDGE('',*,*,#466,.F.);
#591=ORIENTED_EDGE('',*,*,#467,.T.);
#592=ORIENTED_EDGE('',*,*,#468,.T.);
#593=ORIENTED_EDGE('',*,*,#469,.T.);
#594=ORIENTED_EDGE('',*,*,#467,.F.);
#595=ORIENTED_EDGE('',*,*,#466,.T.);
#596=ORIENTED_EDGE('',*,*,#470,.T.);
#597=ORIENTED_EDGE('',*,*,#465,.T.);
#598=ORIENTED_EDGE('',*,*,#470,.F.);
#599=ORIENTED_EDGE('',*,*,#471,.T.);
#600=ORIENTED_EDGE('',*,*,#472,.T.);
#601=ORIENTED_EDGE('',*,*,#473,.T.);
#602=ORIENTED_EDGE('',*,*,#474,.T.);
#603=ORIENTED_EDGE('',*,*,#473,.F.);
#604=ORIENTED_EDGE('',*,*,#475,.T.);
#605=ORIENTED_EDGE('',*,*,#476,.T.);
#606=ORIENTED_EDGE('',*,*,#475,.F.);
#607=ORIENTED_EDGE('',*,*,#474,.F.);
#608=ORIENTED_EDGE('',*,*,#477,.T.);
#609=ORIENTED_EDGE('',*,*,#468,.F.);
#610=ORIENTED_EDGE('',*,*,#469,.F.);
#611=ORIENTED_EDGE('',*,*,#477,.F.);
#612=ORIENTED_EDGE('',*,*,#478,.T.);
#613=ORIENTED_EDGE('',*,*,#479,.T.);
#614=ORIENTED_EDGE('',*,*,#480,.T.);
#615=ORIENTED_EDGE('',*,*,#481,.T.);
#616=ORIENTED_EDGE('',*,*,#472,.F.);
#617=ORIENTED_EDGE('',*,*,#482,.T.);
#618=ORIENTED_EDGE('',*,*,#483,.T.);
#619=ORIENTED_EDGE('',*,*,#479,.F.);
#620=ORIENTED_EDGE('',*,*,#483,.F.);
#621=ORIENTED_EDGE('',*,*,#484,.F.);
#622=ORIENTED_EDGE('',*,*,#480,.F.);
#623=ORIENTED_EDGE('',*,*,#471,.F.);
#624=ORIENTED_EDGE('',*,*,#481,.F.);
#625=ORIENTED_EDGE('',*,*,#484,.T.);
#626=ORIENTED_EDGE('',*,*,#482,.F.);
#627=ORIENTED_EDGE('',*,*,#476,.F.);
#628=ORIENTED_EDGE('',*,*,#478,.F.);
#629=ORIENTED_EDGE('',*,*,#485,.F.);
#630=ORIENTED_EDGE('',*,*,#486,.F.);
#631=ORIENTED_EDGE('',*,*,#487,.T.);
#632=ORIENTED_EDGE('',*,*,#488,.T.);
#633=ORIENTED_EDGE('',*,*,#489,.T.);
#634=ORIENTED_EDGE('',*,*,#487,.F.);
#635=ORIENTED_EDGE('',*,*,#486,.T.);
#636=ORIENTED_EDGE('',*,*,#490,.T.);
#637=ORIENTED_EDGE('',*,*,#485,.T.);
#638=ORIENTED_EDGE('',*,*,#490,.F.);
#639=ORIENTED_EDGE('',*,*,#491,.T.);
#640=ORIENTED_EDGE('',*,*,#492,.T.);
#641=ORIENTED_EDGE('',*,*,#491,.F.);
#642=ORIENTED_EDGE('',*,*,#493,.T.);
#643=ORIENTED_EDGE('',*,*,#494,.T.);
#644=ORIENTED_EDGE('',*,*,#493,.F.);
#645=ORIENTED_EDGE('',*,*,#492,.F.);
#646=ORIENTED_EDGE('',*,*,#495,.T.);
#647=ORIENTED_EDGE('',*,*,#488,.F.);
#648=ORIENTED_EDGE('',*,*,#489,.F.);
#649=ORIENTED_EDGE('',*,*,#495,.F.);
#650=ORIENTED_EDGE('',*,*,#496,.T.);
#651=ORIENTED_EDGE('',*,*,#497,.T.);
#652=ORIENTED_EDGE('',*,*,#498,.F.);
#653=ORIENTED_EDGE('',*,*,#499,.T.);
#654=ORIENTED_EDGE('',*,*,#500,.T.);
#655=ORIENTED_EDGE('',*,*,#501,.T.);
#656=ORIENTED_EDGE('',*,*,#502,.F.);
#657=ORIENTED_EDGE('',*,*,#497,.F.);
#658=ORIENTED_EDGE('',*,*,#503,.T.);
#659=ORIENTED_EDGE('',*,*,#498,.T.);
#660=ORIENTED_EDGE('',*,*,#502,.T.);
#661=ORIENTED_EDGE('',*,*,#500,.F.);
#662=ORIENTED_EDGE('',*,*,#504,.F.);
#663=ORIENTED_EDGE('',*,*,#503,.F.);
#664=ORIENTED_EDGE('',*,*,#501,.F.);
#665=ORIENTED_EDGE('',*,*,#504,.T.);
#666=ORIENTED_EDGE('',*,*,#499,.F.);
#667=ORIENTED_EDGE('',*,*,#494,.F.);
#668=ORIENTED_EDGE('',*,*,#496,.F.);
#669=ORIENTED_EDGE('',*,*,#505,.F.);
#670=ORIENTED_EDGE('',*,*,#506,.T.);
#671=ORIENTED_EDGE('',*,*,#507,.F.);
#672=ORIENTED_EDGE('',*,*,#506,.F.);
#673=ORIENTED_EDGE('',*,*,#508,.F.);
#674=ORIENTED_EDGE('',*,*,#509,.T.);
#675=ORIENTED_EDGE('',*,*,#510,.F.);
#676=ORIENTED_EDGE('',*,*,#509,.F.);
#677=ORIENTED_EDGE('',*,*,#511,.F.);
#678=ORIENTED_EDGE('',*,*,#512,.T.);
#679=ORIENTED_EDGE('',*,*,#513,.F.);
#680=ORIENTED_EDGE('',*,*,#514,.F.);
#681=ORIENTED_EDGE('',*,*,#515,.F.);
#682=ORIENTED_EDGE('',*,*,#514,.T.);
#683=ORIENTED_EDGE('',*,*,#516,.F.);
#684=ORIENTED_EDGE('',*,*,#517,.F.);
#685=ORIENTED_EDGE('',*,*,#518,.F.);
#686=ORIENTED_EDGE('',*,*,#517,.T.);
#687=ORIENTED_EDGE('',*,*,#519,.F.);
#688=ORIENTED_EDGE('',*,*,#520,.F.);
#689=ORIENTED_EDGE('',*,*,#521,.F.);
#690=ORIENTED_EDGE('',*,*,#520,.T.);
#691=ORIENTED_EDGE('',*,*,#522,.F.);
#692=ORIENTED_EDGE('',*,*,#523,.F.);
#693=ORIENTED_EDGE('',*,*,#524,.F.);
#694=ORIENTED_EDGE('',*,*,#523,.T.);
#695=ORIENTED_EDGE('',*,*,#525,.F.);
#696=ORIENTED_EDGE('',*,*,#526,.F.);
#697=ORIENTED_EDGE('',*,*,#527,.F.);
#698=ORIENTED_EDGE('',*,*,#526,.T.);
#699=ORIENTED_EDGE('',*,*,#528,.F.);
#700=ORIENTED_EDGE('',*,*,#529,.F.);
#701=ORIENTED_EDGE('',*,*,#530,.F.);
#702=ORIENTED_EDGE('',*,*,#529,.T.);
#703=ORIENTED_EDGE('',*,*,#531,.F.);
#704=ORIENTED_EDGE('',*,*,#532,.F.);
#705=ORIENTED_EDGE('',*,*,#533,.F.);
#706=ORIENTED_EDGE('',*,*,#532,.T.);
#707=ORIENTED_EDGE('',*,*,#534,.F.);
#708=ORIENTED_EDGE('',*,*,#535,.F.);
#709=ORIENTED_EDGE('',*,*,#536,.F.);
#710=ORIENTED_EDGE('',*,*,#535,.T.);
#711=ORIENTED_EDGE('',*,*,#537,.F.);
#712=ORIENTED_EDGE('',*,*,#538,.F.);
#713=ORIENTED_EDGE('',*,*,#539,.F.);
#714=ORIENTED_EDGE('',*,*,#538,.T.);
#715=ORIENTED_EDGE('',*,*,#540,.F.);
#716=ORIENTED_EDGE('',*,*,#541,.F.);
#717=ORIENTED_EDGE('',*,*,#542,.F.);
#718=ORIENTED_EDGE('',*,*,#541,.T.);
#719=ORIENTED_EDGE('',*,*,#543,.F.);
#720=ORIENTED_EDGE('',*,*,#544,.F.);
#721=ORIENTED_EDGE('',*,*,#545,.F.);
#722=ORIENTED_EDGE('',*,*,#544,.T.);
#723=ORIENTED_EDGE('',*,*,#546,.F.);
#724=ORIENTED_EDGE('',*,*,#512,.F.);
#725=ORIENTED_EDGE('',*,*,#546,.T.);
#726=ORIENTED_EDGE('',*,*,#543,.T.);
#727=ORIENTED_EDGE('',*,*,#540,.T.);
#728=ORIENTED_EDGE('',*,*,#537,.T.);
#729=ORIENTED_EDGE('',*,*,#534,.T.);
#730=ORIENTED_EDGE('',*,*,#531,.T.);
#731=ORIENTED_EDGE('',*,*,#528,.T.);
#732=ORIENTED_EDGE('',*,*,#525,.T.);
#733=ORIENTED_EDGE('',*,*,#522,.T.);
#734=ORIENTED_EDGE('',*,*,#519,.T.);
#735=ORIENTED_EDGE('',*,*,#516,.T.);
#736=ORIENTED_EDGE('',*,*,#513,.T.);
#737=ORIENTED_EDGE('',*,*,#547,.F.);
#738=ORIENTED_EDGE('',*,*,#548,.T.);
#739=ORIENTED_EDGE('',*,*,#549,.F.);
#740=ORIENTED_EDGE('',*,*,#550,.F.);
#741=ORIENTED_EDGE('',*,*,#551,.F.);
#742=ORIENTED_EDGE('',*,*,#550,.T.);
#743=ORIENTED_EDGE('',*,*,#552,.F.);
#744=ORIENTED_EDGE('',*,*,#553,.F.);
#745=ORIENTED_EDGE('',*,*,#554,.F.);
#746=ORIENTED_EDGE('',*,*,#553,.T.);
#747=ORIENTED_EDGE('',*,*,#555,.F.);
#748=ORIENTED_EDGE('',*,*,#556,.F.);
#749=ORIENTED_EDGE('',*,*,#557,.F.);
#750=ORIENTED_EDGE('',*,*,#556,.T.);
#751=ORIENTED_EDGE('',*,*,#558,.F.);
#752=ORIENTED_EDGE('',*,*,#548,.F.);
#753=ORIENTED_EDGE('',*,*,#558,.T.);
#754=ORIENTED_EDGE('',*,*,#555,.T.);
#755=ORIENTED_EDGE('',*,*,#552,.T.);
#756=ORIENTED_EDGE('',*,*,#549,.T.);
#757=ORIENTED_EDGE('',*,*,#559,.F.);
#758=ORIENTED_EDGE('',*,*,#560,.F.);
#759=ORIENTED_EDGE('',*,*,#561,.F.);
#760=ORIENTED_EDGE('',*,*,#562,.F.);
#761=ORIENTED_EDGE('',*,*,#507,.T.);
#762=ORIENTED_EDGE('',*,*,#510,.T.);
#763=ORIENTED_EDGE('',*,*,#563,.F.);
#764=ORIENTED_EDGE('',*,*,#564,.F.);
#765=ORIENTED_EDGE('',*,*,#565,.F.);
#766=ORIENTED_EDGE('',*,*,#566,.F.);
#767=ORIENTED_EDGE('',*,*,#567,.F.);
#768=ORIENTED_EDGE('',*,*,#568,.F.);
#769=ORIENTED_EDGE('',*,*,#505,.T.);
#770=ORIENTED_EDGE('',*,*,#508,.T.);
#771=ORIENTED_EDGE('',*,*,#511,.T.);
#772=ORIENTED_EDGE('',*,*,#515,.T.);
#773=ORIENTED_EDGE('',*,*,#518,.T.);
#774=ORIENTED_EDGE('',*,*,#521,.T.);
#775=ORIENTED_EDGE('',*,*,#524,.T.);
#776=ORIENTED_EDGE('',*,*,#527,.T.);
#777=ORIENTED_EDGE('',*,*,#530,.T.);
#778=ORIENTED_EDGE('',*,*,#533,.T.);
#779=ORIENTED_EDGE('',*,*,#536,.T.);
#780=ORIENTED_EDGE('',*,*,#539,.T.);
#781=ORIENTED_EDGE('',*,*,#542,.T.);
#782=ORIENTED_EDGE('',*,*,#545,.T.);
#783=ORIENTED_EDGE('',*,*,#547,.T.);
#784=ORIENTED_EDGE('',*,*,#551,.T.);
#785=ORIENTED_EDGE('',*,*,#554,.T.);
#786=ORIENTED_EDGE('',*,*,#557,.T.);
#787=ORIENTED_EDGE('',*,*,#569,.T.);
#788=ORIENTED_EDGE('',*,*,#570,.F.);
#789=ORIENTED_EDGE('',*,*,#571,.F.);
#790=ORIENTED_EDGE('',*,*,#564,.T.);
#791=ORIENTED_EDGE('',*,*,#572,.T.);
#792=ORIENTED_EDGE('',*,*,#573,.F.);
#793=ORIENTED_EDGE('',*,*,#569,.F.);
#794=ORIENTED_EDGE('',*,*,#563,.T.);
#795=ORIENTED_EDGE('',*,*,#574,.T.);
#796=ORIENTED_EDGE('',*,*,#575,.F.);
#797=ORIENTED_EDGE('',*,*,#572,.F.);
#798=ORIENTED_EDGE('',*,*,#568,.T.);
#799=ORIENTED_EDGE('',*,*,#561,.T.);
#800=ORIENTED_EDGE('',*,*,#576,.T.);
#801=ORIENTED_EDGE('',*,*,#577,.F.);
#802=ORIENTED_EDGE('',*,*,#578,.F.);
#803=ORIENTED_EDGE('',*,*,#560,.T.);
#804=ORIENTED_EDGE('',*,*,#579,.T.);
#805=ORIENTED_EDGE('',*,*,#580,.F.);
#806=ORIENTED_EDGE('',*,*,#576,.F.);
#807=ORIENTED_EDGE('',*,*,#559,.T.);
#808=ORIENTED_EDGE('',*,*,#581,.T.);
#809=ORIENTED_EDGE('',*,*,#582,.F.);
#810=ORIENTED_EDGE('',*,*,#579,.F.);
#811=ORIENTED_EDGE('',*,*,#562,.T.);
#812=ORIENTED_EDGE('',*,*,#578,.T.);
#813=ORIENTED_EDGE('',*,*,#583,.F.);
#814=ORIENTED_EDGE('',*,*,#581,.F.);
#815=ORIENTED_EDGE('',*,*,#571,.T.);
#816=ORIENTED_EDGE('',*,*,#584,.F.);
#817=ORIENTED_EDGE('',*,*,#585,.F.);
#818=ORIENTED_EDGE('',*,*,#565,.T.);
#819=ORIENTED_EDGE('',*,*,#585,.T.);
#820=ORIENTED_EDGE('',*,*,#586,.F.);
#821=ORIENTED_EDGE('',*,*,#587,.F.);
#822=ORIENTED_EDGE('',*,*,#566,.T.);
#823=ORIENTED_EDGE('',*,*,#587,.T.);
#824=ORIENTED_EDGE('',*,*,#588,.F.);
#825=ORIENTED_EDGE('',*,*,#574,.F.);
#826=ORIENTED_EDGE('',*,*,#567,.T.);
#827=ORIENTED_EDGE('',*,*,#573,.T.);
#828=ORIENTED_EDGE('',*,*,#575,.T.);
#829=ORIENTED_EDGE('',*,*,#588,.T.);
#830=ORIENTED_EDGE('',*,*,#586,.T.);
#831=ORIENTED_EDGE('',*,*,#584,.T.);
#832=ORIENTED_EDGE('',*,*,#570,.T.);
#833=ORIENTED_EDGE('',*,*,#583,.T.);
#834=ORIENTED_EDGE('',*,*,#577,.T.);
#835=ORIENTED_EDGE('',*,*,#580,.T.);
#836=ORIENTED_EDGE('',*,*,#582,.T.);
#837=PLANE('',#948);
#838=PLANE('',#955);
#839=PLANE('',#957);
#840=PLANE('',#967);
#841=PLANE('',#968);
#842=PLANE('',#969);
#843=PLANE('',#970);
#844=PLANE('',#977);
#845=PLANE('',#988);
#846=PLANE('',#989);
#847=PLANE('',#990);
#848=PLANE('',#991);
#849=PLANE('',#998);
#850=PLANE('',#999);
#851=PLANE('',#1000);
#852=PLANE('',#1001);
#853=PLANE('',#1002);
#854=PLANE('',#1003);
#855=PLANE('',#1004);
#856=PLANE('',#1005);
#857=PLANE('',#1006);
#858=PLANE('',#1007);
#859=PLANE('',#1008);
#860=PLANE('',#1009);
#861=PLANE('',#1010);
#862=PLANE('',#1011);
#863=PLANE('',#1012);
#864=PLANE('',#1013);
#865=PLANE('',#1014);
#866=PLANE('',#1015);
#867=PLANE('',#1016);
#868=PLANE('',#1018);
#869=PLANE('',#1022);
#870=PLANE('',#1025);
#871=PLANE('',#1026);
#872=PLANE('',#1027);
#873=PLANE('',#1028);
#874=PLANE('',#1033);
#875=PLANE('',#1036);
#876=ADVANCED_FACE('',(#226),#837,.T.);
#877=ADVANCED_FACE('',(#227),#214,.T.);
#878=ADVANCED_FACE('',(#228),#36,.F.);
#879=ADVANCED_FACE('',(#229),#838,.T.);
#880=ADVANCED_FACE('',(#230,#25),#839,.F.);
#881=ADVANCED_FACE('',(#231),#215,.T.);
#882=ADVANCED_FACE('',(#232),#23,.T.);
#883=ADVANCED_FACE('',(#233),#216,.T.);
#884=ADVANCED_FACE('',(#234),#840,.T.);
#885=ADVANCED_FACE('',(#235),#841,.F.);
#886=ADVANCED_FACE('',(#236,#26),#842,.F.);
#887=ADVANCED_FACE('',(#237),#843,.T.);
#888=ADVANCED_FACE('',(#238),#217,.T.);
#889=ADVANCED_FACE('',(#239),#37,.F.);
#890=ADVANCED_FACE('',(#240,#27),#844,.F.);
#891=ADVANCED_FACE('',(#241),#218,.T.);
#892=ADVANCED_FACE('',(#242),#24,.T.);
#893=ADVANCED_FACE('',(#243),#219,.T.);
#894=ADVANCED_FACE('',(#244),#845,.T.);
#895=ADVANCED_FACE('',(#245),#846,.T.);
#896=ADVANCED_FACE('',(#246),#847,.F.);
#897=ADVANCED_FACE('',(#247,#28),#848,.F.);
#898=ADVANCED_FACE('',(#248),#220,.F.);
#899=ADVANCED_FACE('',(#249),#221,.F.);
#900=ADVANCED_FACE('',(#250),#849,.T.);
#901=ADVANCED_FACE('',(#251),#850,.T.);
#902=ADVANCED_FACE('',(#252),#851,.T.);
#903=ADVANCED_FACE('',(#253),#852,.T.);
#904=ADVANCED_FACE('',(#254),#853,.T.);
#905=ADVANCED_FACE('',(#255),#854,.T.);
#906=ADVANCED_FACE('',(#256),#855,.T.);
#907=ADVANCED_FACE('',(#257),#856,.T.);
#908=ADVANCED_FACE('',(#258),#857,.T.);
#909=ADVANCED_FACE('',(#259),#858,.T.);
#910=ADVANCED_FACE('',(#260),#859,.T.);
#911=ADVANCED_FACE('',(#261),#860,.T.);
#912=ADVANCED_FACE('',(#262),#861,.T.);
#913=ADVANCED_FACE('',(#263),#862,.T.);
#914=ADVANCED_FACE('',(#264),#863,.T.);
#915=ADVANCED_FACE('',(#265),#864,.T.);
#916=ADVANCED_FACE('',(#266),#865,.T.);
#917=ADVANCED_FACE('',(#267),#866,.T.);
#918=ADVANCED_FACE('',(#268,#29,#30),#867,.F.);
#919=ADVANCED_FACE('',(#269,#31,#32,#33,#34),#868,.F.);
#920=ADVANCED_FACE('',(#270),#869,.T.);
#921=ADVANCED_FACE('',(#271),#222,.T.);
#922=ADVANCED_FACE('',(#272),#870,.T.);
#923=ADVANCED_FACE('',(#273),#871,.T.);
#924=ADVANCED_FACE('',(#274),#872,.T.);
#925=ADVANCED_FACE('',(#275),#873,.T.);
#926=ADVANCED_FACE('',(#276),#223,.F.);
#927=ADVANCED_FACE('',(#277),#224,.T.);
#928=ADVANCED_FACE('',(#278),#874,.T.);
#929=ADVANCED_FACE('',(#279),#225,.T.);
#930=ADVANCED_FACE('',(#280,#35),#875,.T.);
#931=CLOSED_SHELL('',(#876,#877,#878,#879,#880,#881,#882,#883,#884,#885,
#886));
#932=CLOSED_SHELL('',(#887,#888,#889,#890,#891,#892,#893,#894,#895,#896,
#897));
#933=CLOSED_SHELL('',(#898,#899,#900,#901,#902,#903,#904,#905,#906,#907,
#908,#909,#910,#911,#912,#913,#914,#915,#916,#917,#918,#919,#920,#921,#922,
#923,#924,#925,#926,#927,#928,#929,#930));
#934=DERIVED_UNIT_ELEMENT(#936,1.);
#935=DERIVED_UNIT_ELEMENT(#1633,-3.);
#936=(
MASS_UNIT()
NAMED_UNIT(*)
SI_UNIT(.KILO.,.GRAM.)
);
#937=DERIVED_UNIT((#934,#935));
#938=MEASURE_REPRESENTATION_ITEM('density measure',
POSITIVE_RATIO_MEASURE(7850.),#937);
#939=PROPERTY_DEFINITION_REPRESENTATION(#944,#941);
#940=PROPERTY_DEFINITION_REPRESENTATION(#945,#942);
#941=REPRESENTATION('material name',(#943),#1630);
#942=REPRESENTATION('density',(#938),#1630);
#943=DESCRIPTIVE_REPRESENTATION_ITEM('Steel','Steel');
#944=PROPERTY_DEFINITION('material property','material name',#1645);
#945=PROPERTY_DEFINITION('material property','density of part',#1645);
#946=AXIS2_PLACEMENT_3D('',#1310,#1038,#1039);
#947=AXIS2_PLACEMENT_3D('',#1311,#1040,#1041);
#948=AXIS2_PLACEMENT_3D('',#1312,#1042,#1043);
#949=AXIS2_PLACEMENT_3D('',#1314,#1044,#1045);
#950=AXIS2_PLACEMENT_3D('',#1315,#1046,#1047);
#951=AXIS2_PLACEMENT_3D('',#1317,#1048,#1049);
#952=AXIS2_PLACEMENT_3D('',#1321,#1051,#1052);
#953=AXIS2_PLACEMENT_3D('',#1322,#1053,#1054);
#954=AXIS2_PLACEMENT_3D('',#1350,#1055,#1056);
#955=AXIS2_PLACEMENT_3D('',#1351,#1057,#1058);
#956=AXIS2_PLACEMENT_3D('',#1355,#1060,#1061);
#957=AXIS2_PLACEMENT_3D('',#1356,#1062,#1063);
#958=AXIS2_PLACEMENT_3D('',#1358,#1064,#1065);
#959=AXIS2_PLACEMENT_3D('',#1360,#1066,#1067);
#960=AXIS2_PLACEMENT_3D('',#1361,#1068,#1069);
#961=AXIS2_PLACEMENT_3D('',#1364,#1071,#1072);
#962=AXIS2_PLACEMENT_3D('',#1365,#1073,#1074);
#963=AXIS2_PLACEMENT_3D('',#1367,#1076,#1077);
#964=AXIS2_PLACEMENT_3D('',#1369,#1078,#1079);
#965=AXIS2_PLACEMENT_3D('',#1373,#1081,#1082);
#966=AXIS2_PLACEMENT_3D('',#1377,#1085,#1086);
#967=AXIS2_PLACEMENT_3D('',#1378,#1087,#1088);
#968=AXIS2_PLACEMENT_3D('',#1380,#1090,#1091);
#969=AXIS2_PLACEMENT_3D('',#1381,#1092,#1093);
#970=AXIS2_PLACEMENT_3D('',#1382,#1094,#1095);
#971=AXIS2_PLACEMENT_3D('',#1384,#1096,#1097);
#972=AXIS2_PLACEMENT_3D('',#1385,#1098,#1099);
#973=AXIS2_PLACEMENT_3D('',#1387,#1100,#1101);
#974=AXIS2_PLACEMENT_3D('',#1391,#1103,#1104);
#975=AXIS2_PLACEMENT_3D('',#1392,#1105,#1106);
#976=AXIS2_PLACEMENT_3D('',#1420,#1107,#1108);
#977=AXIS2_PLACEMENT_3D('',#1421,#1109,#1110);
#978=AXIS2_PLACEMENT_3D('',#1423,#1111,#1112);
#979=AXIS2_PLACEMENT_3D('',#1425,#1113,#1114);
#980=AXIS2_PLACEMENT_3D('',#1426,#1115,#1116);
#981=AXIS2_PLACEMENT_3D('',#1429,#1118,#1119);
#982=AXIS2_PLACEMENT_3D('',#1430,#1120,#1121);
#983=AXIS2_PLACEMENT_3D('',#1432,#1123,#1124);
#984=AXIS2_PLACEMENT_3D('',#1434,#1125,#1126);
#985=AXIS2_PLACEMENT_3D('',#1438,#1128,#1129);
#986=AXIS2_PLACEMENT_3D('',#1442,#1131,#1132);
#987=AXIS2_PLACEMENT_3D('',#1445,#1134,#1135);
#988=AXIS2_PLACEMENT_3D('',#1446,#1136,#1137);
#989=AXIS2_PLACEMENT_3D('',#1448,#1139,#1140);
#990=AXIS2_PLACEMENT_3D('',#1450,#1142,#1143);
#991=AXIS2_PLACEMENT_3D('',#1451,#1144,#1145);
#992=AXIS2_PLACEMENT_3D('',#1452,#1146,#1147);
#993=AXIS2_PLACEMENT_3D('',#1454,#1148,#1149);
#994=AXIS2_PLACEMENT_3D('',#1457,#1151,#1152);
#995=AXIS2_PLACEMENT_3D('',#1458,#1153,#1154);
#996=AXIS2_PLACEMENT_3D('',#1460,#1155,#1156);
#997=AXIS2_PLACEMENT_3D('',#1463,#1158,#1159);
#998=AXIS2_PLACEMENT_3D('',#1464,#1160,#1161);
#999=AXIS2_PLACEMENT_3D('',#1473,#1166,#1167);
#1000=AXIS2_PLACEMENT_3D('',#1479,#1171,#1172);
#1001=AXIS2_PLACEMENT_3D('',#1485,#1176,#1177);
#1002=AXIS2_PLACEMENT_3D('',#1491,#1181,#1182);
#1003=AXIS2_PLACEMENT_3D('',#1497,#1186,#1187);
#1004=AXIS2_PLACEMENT_3D('',#1503,#1191,#1192);
#1005=AXIS2_PLACEMENT_3D('',#1509,#1196,#1197);
#1006=AXIS2_PLACEMENT_3D('',#1515,#1201,#1202);
#1007=AXIS2_PLACEMENT_3D('',#1521,#1206,#1207);
#1008=AXIS2_PLACEMENT_3D('',#1527,#1211,#1212);
#1009=AXIS2_PLACEMENT_3D('',#1533,#1216,#1217);
#1010=AXIS2_PLACEMENT_3D('',#1536,#1220,#1221);
#1011=AXIS2_PLACEMENT_3D('',#1537,#1222,#1223);
#1012=AXIS2_PLACEMENT_3D('',#1546,#1228,#1229);
#1013=AXIS2_PLACEMENT_3D('',#1552,#1233,#1234);
#1014=AXIS2_PLACEMENT_3D('',#1558,#1238,#1239);
#1015=AXIS2_PLACEMENT_3D('',#1561,#1242,#1243);
#1016=AXIS2_PLACEMENT_3D('',#1562,#1244,#1245);
#1017=AXIS2_PLACEMENT_3D('',#1570,#1249,#1250);
#1018=AXIS2_PLACEMENT_3D('',#1571,#1251,#1252);
#1019=AXIS2_PLACEMENT_3D('',#1574,#1253,#1254);
#1020=AXIS2_PLACEMENT_3D('',#1578,#1256,#1257);
#1021=AXIS2_PLACEMENT_3D('',#1582,#1259,#1260);
#1022=AXIS2_PLACEMENT_3D('',#1584,#1262,#1263);
#1023=AXIS2_PLACEMENT_3D('',#1590,#1267,#1268);
#1024=AXIS2_PLACEMENT_3D('',#1593,#1270,#1271);
#1025=AXIS2_PLACEMENT_3D('',#1594,#1272,#1273);
#1026=AXIS2_PLACEMENT_3D('',#1598,#1276,#1277);
#1027=AXIS2_PLACEMENT_3D('',#1604,#1281,#1282);
#1028=AXIS2_PLACEMENT_3D('',#1608,#1285,#1286);
#1029=AXIS2_PLACEMENT_3D('',#1612,#1289,#1290);
#1030=AXIS2_PLACEMENT_3D('',#1613,#1291,#1292);
#1031=AXIS2_PLACEMENT_3D('',#1614,#1293,#1294);
#1032=AXIS2_PLACEMENT_3D('',#1616,#1295,#1296);
#1033=AXIS2_PLACEMENT_3D('',#1618,#1298,#1299);
#1034=AXIS2_PLACEMENT_3D('',#1622,#1302,#1303);
#1035=AXIS2_PLACEMENT_3D('',#1623,#1304,#1305);
#1036=AXIS2_PLACEMENT_3D('',#1624,#1306,#1307);
#1037=AXIS2_PLACEMENT_3D('',#1625,#1308,#1309);
#1038=DIRECTION('axis',(0.,0.,1.));
#1039=DIRECTION('refdir',(1.,0.,0.));
#1040=DIRECTION('axis',(0.,0.,1.));
#1041=DIRECTION('refdir',(1.,0.,0.));
#1042=DIRECTION('center_axis',(0.,0.,1.));
#1043=DIRECTION('ref_axis',(1.,0.,0.));
#1044=DIRECTION('center_axis',(0.,0.,-1.));
#1045=DIRECTION('ref_axis',(1.,0.,0.));
#1046=DIRECTION('center_axis',(0.,0.,1.));
#1047=DIRECTION('ref_axis',(1.,0.,0.));
#1048=DIRECTION('center_axis',(0.,0.,1.));
#1049=DIRECTION('ref_axis',(1.,0.,0.));
#1050=DIRECTION('',(0.,0.,-1.));
#1051=DIRECTION('center_axis',(0.,0.,-1.));
#1052=DIRECTION('ref_axis',(1.,0.,0.));
#1053=DIRECTION('center_axis',(0.,0.,-1.));
#1054=DIRECTION('ref_axis',(1.,0.,0.));
#1055=DIRECTION('center_axis',(5.23627093770771E-30,1.,4.71641356877427E-16));
#1056=DIRECTION('ref_axis',(-1.,0.,1.11022302462516E-14));
#1057=DIRECTION('center_axis',(0.,0.,-1.));
#1058=DIRECTION('ref_axis',(-1.,0.,0.));
#1059=DIRECTION('',(-1.18068883090891E-18,1.,0.));
#1060=DIRECTION('center_axis',(0.,0.,-1.));
#1061=DIRECTION('ref_axis',(1.,0.,0.));
#1062=DIRECTION('center_axis',(0.,0.,-1.));
#1063=DIRECTION('ref_axis',(-1.,0.,0.));
#1064=DIRECTION('center_axis',(0.,0.,1.));
#1065=DIRECTION('ref_axis',(-1.,0.,0.));
#1066=DIRECTION('center_axis',(0.,0.,-1.));
#1067=DIRECTION('ref_axis',(-1.,0.,0.));
#1068=DIRECTION('center_axis',(0.,0.,1.));
#1069=DIRECTION('ref_axis',(-1.,0.,0.));
#1070=DIRECTION('',(0.,0.,-1.));
#1071=DIRECTION('center_axis',(0.,0.,1.));
#1072=DIRECTION('ref_axis',(-1.,0.,0.));
#1073=DIRECTION('center_axis',(0.,0.,-1.));
#1074=DIRECTION('ref_axis',(-1.,0.,0.));
#1075=DIRECTION('',(-0.707106781186547,8.65956056235493E-17,0.707106781186548));
#1076=DIRECTION('center_axis',(0.,0.,1.));
#1077=DIRECTION('ref_axis',(1.,0.,0.));
#1078=DIRECTION('center_axis',(0.,0.,-1.));
#1079=DIRECTION('ref_axis',(1.,0.,0.));
#1080=DIRECTION('',(0.,0.,-1.));
#1081=DIRECTION('center_axis',(0.,0.,1.));
#1082=DIRECTION('ref_axis',(1.,0.,0.));
#1083=DIRECTION('',(0.,0.,-1.));
#1084=DIRECTION('',(0.,0.,1.));
#1085=DIRECTION('center_axis',(0.,0.,1.));
#1086=DIRECTION('ref_axis',(1.,0.,0.));
#1087=DIRECTION('center_axis',(0.,0.,-1.));
#1088=DIRECTION('ref_axis',(1.,0.,0.));
#1089=DIRECTION('',(-1.18068883090891E-18,1.,0.));
#1090=DIRECTION('center_axis',(1.,1.18068883090891E-18,0.));
#1091=DIRECTION('ref_axis',(-1.18068883090891E-18,1.,0.));
#1092=DIRECTION('center_axis',(0.,0.,1.));
#1093=DIRECTION('ref_axis',(1.,0.,0.));
#1094=DIRECTION('center_axis',(0.,0.,1.));
#1095=DIRECTION('ref_axis',(1.,0.,0.));
#1096=DIRECTION('center_axis',(0.,0.,-1.));
#1097=DIRECTION('ref_axis',(1.,0.,0.));
#1098=DIRECTION('center_axis',(0.,0.,1.));
#1099=DIRECTION('ref_axis',(1.,0.,0.));
#1100=DIRECTION('center_axis',(0.,0.,1.));
#1101=DIRECTION('ref_axis',(1.,0.,0.));
#1102=DIRECTION('',(0.,0.,-1.));
#1103=DIRECTION('center_axis',(0.,0.,-1.));
#1104=DIRECTION('ref_axis',(1.,0.,0.));
#1105=DIRECTION('center_axis',(0.,0.,-1.));
#1106=DIRECTION('ref_axis',(1.,0.,0.));
#1107=DIRECTION('center_axis',(-3.07288342920669E-29,1.,-2.30650611112136E-15));
#1108=DIRECTION('ref_axis',(-1.,0.,1.33226762955019E-14));
#1109=DIRECTION('center_axis',(0.,0.,-1.));
#1110=DIRECTION('ref_axis',(-1.,0.,0.));
#1111=DIRECTION('center_axis',(0.,0.,1.));
#1112=DIRECTION('ref_axis',(-1.,0.,0.));
#1113=DIRECTION('center_axis',(0.,0.,-1.));
#1114=DIRECTION('ref_axis',(-1.,0.,0.));
#1115=DIRECTION('center_axis',(0.,0.,1.));
#1116=DIRECTION('ref_axis',(-1.,0.,0.));
#1117=DIRECTION('',(0.,0.,-1.));
#1118=DIRECTION('center_axis',(0.,0.,1.));
#1119=DIRECTION('ref_axis',(-1.,0.,0.));
#1120=DIRECTION('center_axis',(0.,0.,-1.));
#1121=DIRECTION('ref_axis',(-1.,0.,0.));
#1122=DIRECTION('',(-0.707106781186547,8.65956056235493E-17,0.707106781186548));
#1123=DIRECTION('center_axis',(0.,0.,1.));
#1124=DIRECTION('ref_axis',(1.,0.,0.));
#1125=DIRECTION('center_axis',(0.,0.,-1.));
#1126=DIRECTION('ref_axis',(1.,0.,0.));
#1127=DIRECTION('',(0.,0.,-1.));
#1128=DIRECTION('center_axis',(0.,0.,-1.));
#1129=DIRECTION('ref_axis',(1.,0.,0.));
#1130=DIRECTION('',(0.,0.,1.));
#1131=DIRECTION('center_axis',(0.,0.,1.));
#1132=DIRECTION('ref_axis',(1.,0.,0.));
#1133=DIRECTION('',(0.,0.,-1.));
#1134=DIRECTION('center_axis',(0.,0.,-1.));
#1135=DIRECTION('ref_axis',(1.,0.,0.));
#1136=DIRECTION('center_axis',(0.,0.,-1.));
#1137=DIRECTION('ref_axis',(-1.,0.,0.));
#1138=DIRECTION('',(1.18068883090891E-18,-1.,0.));
#1139=DIRECTION('center_axis',(0.,0.,-1.));
#1140=DIRECTION('ref_axis',(1.,0.,0.));
#1141=DIRECTION('',(1.18068883090891E-18,-1.,0.));
#1142=DIRECTION('center_axis',(-1.,-1.18068883090891E-18,0.));
#1143=DIRECTION('ref_axis',(1.18068883090891E-18,-1.,0.));
#1144=DIRECTION('center_axis',(0.,0.,1.));
#1145=DIRECTION('ref_axis',(1.,0.,0.));
#1146=DIRECTION('center_axis',(0.,0.,1.));
#1147=DIRECTION('ref_axis',(-1.,0.,0.));
#1148=DIRECTION('center_axis',(0.,0.,1.));
#1149=DIRECTION('ref_axis',(-1.,0.,0.));
#1150=DIRECTION('',(0.,0.,1.));
#1151=DIRECTION('center_axis',(0.,0.,-1.));
#1152=DIRECTION('ref_axis',(-1.,0.,0.));
#1153=DIRECTION('center_axis',(0.,0.,1.));
#1154=DIRECTION('ref_axis',(-1.,0.,0.));
#1155=DIRECTION('center_axis',(0.,0.,1.));
#1156=DIRECTION('ref_axis',(-1.,0.,0.));
#1157=DIRECTION('',(0.,0.,1.));
#1158=DIRECTION('center_axis',(0.,0.,-1.));
#1159=DIRECTION('ref_axis',(-1.,0.,0.));
#1160=DIRECTION('center_axis',(1.,1.34957465390615E-15,0.));
#1161=DIRECTION('ref_axis',(1.34957465390615E-15,-1.,0.));
#1162=DIRECTION('',(-1.34957465390615E-15,1.,0.));
#1163=DIRECTION('',(0.,0.,-1.));
#1164=DIRECTION('',(1.34957465390615E-15,-1.,0.));
#1165=DIRECTION('',(0.,0.,-1.));
#1166=DIRECTION('center_axis',(1.35972191508821E-15,-1.,0.));
#1167=DIRECTION('ref_axis',(-1.,-1.35972191508821E-15,0.));
#1168=DIRECTION('',(1.,1.35972191508821E-15,0.));
#1169=DIRECTION('',(-1.,-1.35972191508821E-15,0.));
#1170=DIRECTION('',(0.,0.,-1.));
#1171=DIRECTION('center_axis',(1.,1.61466911114816E-15,0.));
#1172=DIRECTION('ref_axis',(1.61466911114816E-15,-1.,0.));
#1173=DIRECTION('',(-1.61466911114816E-15,1.,0.));
#1174=DIRECTION('',(1.61466911114816E-15,-1.,0.));
#1175=DIRECTION('',(0.,0.,-1.));
#1176=DIRECTION('center_axis',(-1.35972191508821E-15,1.,0.));
#1177=DIRECTION('ref_axis',(1.,1.35972191508821E-15,0.));
#1178=DIRECTION('',(-1.,-1.35972191508821E-15,0.));
#1179=DIRECTION('',(1.,1.35972191508821E-15,0.));
#1180=DIRECTION('',(0.,0.,-1.));
#1181=DIRECTION('center_axis',(1.,1.35972179101442E-15,0.));
#1182=DIRECTION('ref_axis',(1.35972179101442E-15,-1.,0.));
#1183=DIRECTION('',(-1.35972179101442E-15,1.,0.));
#1184=DIRECTION('',(1.35972179101442E-15,-1.,0.));
#1185=DIRECTION('',(0.,0.,-1.));
#1186=DIRECTION('center_axis',(-1.5956730853252E-15,1.,0.));
#1187=DIRECTION('ref_axis',(1.,1.5956730853252E-15,0.));
#1188=DIRECTION('',(-1.,-1.5956730853252E-15,0.));
#1189=DIRECTION('',(1.,1.5956730853252E-15,0.));
#1190=DIRECTION('',(0.,0.,-1.));
#1191=DIRECTION('center_axis',(-1.,-1.35972179101442E-15,0.));
#1192=DIRECTION('ref_axis',(-1.35972179101442E-15,1.,0.));
#1193=DIRECTION('',(1.35972179101442E-15,-1.,0.));
#1194=DIRECTION('',(-1.35972179101442E-15,1.,0.));
#1195=DIRECTION('',(0.,0.,-1.));
#1196=DIRECTION('center_axis',(-1.35972154286691E-15,1.,0.));
#1197=DIRECTION('ref_axis',(1.,1.35972154286691E-15,0.));
#1198=DIRECTION('',(-1.,-1.35972154286691E-15,0.));
#1199=DIRECTION('',(1.,1.35972154286691E-15,0.));
#1200=DIRECTION('',(0.,0.,-1.));
#1201=DIRECTION('center_axis',(-1.,-1.61466911114816E-15,0.));
#1202=DIRECTION('ref_axis',(-1.61466911114816E-15,1.,0.));
#1203=DIRECTION('',(1.61466911114816E-15,-1.,0.));
#1204=DIRECTION('',(-1.61466911114816E-15,1.,0.));
#1205=DIRECTION('',(0.,0.,-1.));
#1206=DIRECTION('center_axis',(1.35972154286691E-15,-1.,0.));
#1207=DIRECTION('ref_axis',(-1.,-1.35972154286691E-15,0.));
#1208=DIRECTION('',(1.,1.35972154286691E-15,0.));
#1209=DIRECTION('',(-1.,-1.35972154286691E-15,0.));
#1210=DIRECTION('',(0.,0.,-1.));
#1211=DIRECTION('center_axis',(-1.,-1.34957465390615E-15,0.));
#1212=DIRECTION('ref_axis',(-1.34957465390615E-15,1.,0.));
#1213=DIRECTION('',(1.34957465390615E-15,-1.,0.));
#1214=DIRECTION('',(-1.34957465390615E-15,1.,0.));
#1215=DIRECTION('',(0.,0.,-1.));
#1216=DIRECTION('center_axis',(0.,-1.,0.));
#1217=DIRECTION('ref_axis',(-1.,0.,0.));
#1218=DIRECTION('',(1.,0.,0.));
#1219=DIRECTION('',(-1.,0.,0.));
#1220=DIRECTION('center_axis',(0.,0.,-1.));
#1221=DIRECTION('ref_axis',(-1.,0.,0.));
#1222=DIRECTION('center_axis',(0.0160027375520942,-0.999871947996762,0.));
#1223=DIRECTION('ref_axis',(-0.999871947996762,-0.0160027375520942,0.));
#1224=DIRECTION('',(0.999871947996762,0.0160027375520942,0.));
#1225=DIRECTION('',(0.,0.,-1.));
#1226=DIRECTION('',(-0.999871947996762,-0.0160027375520942,0.));
#1227=DIRECTION('',(0.,0.,-1.));
#1228=DIRECTION('center_axis',(0.999871947996762,0.0160027375520957,0.));
#1229=DIRECTION('ref_axis',(0.0160027375520957,-0.999871947996762,0.));
#1230=DIRECTION('',(-0.0160027375520957,0.999871947996761,0.));
#1231=DIRECTION('',(0.0160027375520957,-0.999871947996761,0.));
#1232=DIRECTION('',(0.,0.,-1.));
#1233=DIRECTION('center_axis',(-0.0160027375520946,0.999871947996762,0.));
#1234=DIRECTION('ref_axis',(0.999871947996762,0.0160027375520946,0.));
#1235=DIRECTION('',(-0.999871947996761,-0.0160027375520946,0.));
#1236=DIRECTION('',(0.999871947996761,0.0160027375520946,0.));
#1237=DIRECTION('',(0.,0.,-1.));
#1238=DIRECTION('center_axis',(-0.999871947996762,-0.0160027375520958,0.));
#1239=DIRECTION('ref_axis',(-0.0160027375520958,0.999871947996762,0.));
#1240=DIRECTION('',(0.0160027375520958,-0.999871947996761,0.));
#1241=DIRECTION('',(-0.0160027375520958,0.999871947996761,0.));
#1242=DIRECTION('center_axis',(0.,0.,-1.));
#1243=DIRECTION('ref_axis',(-1.,0.,0.));
#1244=DIRECTION('center_axis',(0.,0.,-1.));
#1245=DIRECTION('ref_axis',(1.,0.,0.));
#1246=DIRECTION('',(0.,1.,0.));
#1247=DIRECTION('',(-1.,0.,0.));
#1248=DIRECTION('',(0.,-1.,0.));
#1249=DIRECTION('center_axis',(0.,0.,-1.));
#1250=DIRECTION('ref_axis',(1.,0.,0.));
#1251=DIRECTION('center_axis',(0.,0.,1.));
#1252=DIRECTION('ref_axis',(1.,0.,0.));
#1253=DIRECTION('center_axis',(0.,0.,1.));
#1254=DIRECTION('ref_axis',(1.11022302462516E-15,-1.,0.));
#1255=DIRECTION('',(1.,1.73472347597681E-16,0.));
#1256=DIRECTION('center_axis',(0.,0.,1.));
#1257=DIRECTION('ref_axis',(-1.,0.,0.));
#1258=DIRECTION('',(0.,-1.,0.));
#1259=DIRECTION('center_axis',(0.,0.,1.));
#1260=DIRECTION('ref_axis',(1.,0.,0.));
#1261=DIRECTION('',(2.44902137784961E-16,1.,0.));
#1262=DIRECTION('center_axis',(1.73472347597681E-16,-1.,0.));
#1263=DIRECTION('ref_axis',(1.,1.73472347597681E-16,0.));
#1264=DIRECTION('',(0.,0.,1.));
#1265=DIRECTION('',(1.,1.73472347597681E-16,0.));
#1266=DIRECTION('',(0.,0.,1.));
#1267=DIRECTION('center_axis',(0.,0.,1.));
#1268=DIRECTION('ref_axis',(1.11022302462516E-15,-1.,0.));
#1269=DIRECTION('',(0.,0.,1.));
#1270=DIRECTION('center_axis',(0.,0.,1.));
#1271=DIRECTION('ref_axis',(1.11022302462516E-15,-1.,0.));
#1272=DIRECTION('center_axis',(1.,-2.44902137784961E-16,0.));
#1273=DIRECTION('ref_axis',(2.44902137784961E-16,1.,0.));
#1274=DIRECTION('',(0.,0.,1.));
#1275=DIRECTION('',(2.44902137784961E-16,1.,0.));
#1276=DIRECTION('center_axis',(-1.,0.,0.));
#1277=DIRECTION('ref_axis',(0.,-1.,0.));
#1278=DIRECTION('',(0.,0.,1.));
#1279=DIRECTION('',(0.,-1.,0.));
#1280=DIRECTION('',(0.,0.,1.));
#1281=DIRECTION('center_axis',(0.,1.,0.));
#1282=DIRECTION('ref_axis',(-1.,0.,0.));
#1283=DIRECTION('',(0.,0.,1.));
#1284=DIRECTION('',(-1.,0.,0.));
#1285=DIRECTION('center_axis',(1.,0.,0.));
#1286=DIRECTION('ref_axis',(0.,1.,0.));
#1287=DIRECTION('',(0.,0.,1.));
#1288=DIRECTION('',(0.,1.,0.));
#1289=DIRECTION('center_axis',(0.,0.,1.));
#1290=DIRECTION('ref_axis',(1.,0.,0.));
#1291=DIRECTION('center_axis',(0.,0.,-1.));
#1292=DIRECTION('ref_axis',(1.,0.,0.));
#1293=DIRECTION('center_axis',(0.,0.,1.));
#1294=DIRECTION('ref_axis',(-1.,0.,0.));
#1295=DIRECTION('center_axis',(0.,0.,1.));
#1296=DIRECTION('ref_axis',(-1.,0.,0.));
#1297=DIRECTION('',(0.,0.,1.));
#1298=DIRECTION('center_axis',(-1.,0.,0.));
#1299=DIRECTION('ref_axis',(0.,-1.,0.));
#1300=DIRECTION('',(0.,-1.,0.));
#1301=DIRECTION('',(0.,0.,1.));
#1302=DIRECTION('center_axis',(0.,0.,1.));
#1303=DIRECTION('ref_axis',(1.,0.,0.));
#1304=DIRECTION('center_axis',(0.,0.,1.));
#1305=DIRECTION('ref_axis',(1.,0.,0.));
#1306=DIRECTION('center_axis',(0.,0.,1.));
#1307=DIRECTION('ref_axis',(1.,0.,0.));
#1308=DIRECTION('',(0.,0.,1.));
#1309=DIRECTION('',(1.,0.,0.));
#1310=CARTESIAN_POINT('',(0.,0.,0.));
#1311=CARTESIAN_POINT('',(0.,0.,0.));
#1312=CARTESIAN_POINT('Origin',(0.,1.,6.5));
#1313=CARTESIAN_POINT('',(-0.2,1.,6.5));
#1314=CARTESIAN_POINT('Origin',(2.01936440284936E-17,1.,6.5));
#1315=CARTESIAN_POINT('Origin',(2.01936440284936E-17,1.,0.));
#1316=CARTESIAN_POINT('',(-0.5,1.,6.2));
#1317=CARTESIAN_POINT('Origin',(2.01936440284936E-17,1.,6.2));
#1318=CARTESIAN_POINT('',(-0.5,1.,4.1));
#1319=CARTESIAN_POINT('',(-0.5,1.,0.));
#1320=CARTESIAN_POINT('',(0.5,1.,4.1));
#1321=CARTESIAN_POINT('Origin',(2.01936440284936E-17,1.,4.1));
#1322=CARTESIAN_POINT('Origin',(2.01936440284936E-17,1.,4.1));
#1323=CARTESIAN_POINT('Ctrl Pts',(-0.5,1.,6.2));
#1324=CARTESIAN_POINT('Ctrl Pts',(-0.5,0.500000000000002,6.2));
#1325=CARTESIAN_POINT('Ctrl Pts',(-1.96891114523374E-15,0.500000000000001,
6.2));
#1326=CARTESIAN_POINT('Ctrl Pts',(0.499999999999996,0.500000000000002,6.19999999999999));
#1327=CARTESIAN_POINT('Ctrl Pts',(0.499999999999996,1.,6.19999999999999));
#1328=CARTESIAN_POINT('Ctrl Pts',(0.499999999999996,1.5,6.19999999999999));
#1329=CARTESIAN_POINT('Ctrl Pts',(-1.96891114523373E-15,1.5,6.2));
#1330=CARTESIAN_POINT('Ctrl Pts',(-0.5,1.5,6.2));
#1331=CARTESIAN_POINT('Ctrl Pts',(-0.5,1.,6.2));
#1332=CARTESIAN_POINT('Ctrl Pts',(-0.500000000000003,1.,6.50000000000001));
#1333=CARTESIAN_POINT('Ctrl Pts',(-0.500000000000003,0.499999999999996,
6.50000000000001));
#1334=CARTESIAN_POINT('Ctrl Pts',(1.13160017259064E-15,0.499999999999996,
6.5));
#1335=CARTESIAN_POINT('Ctrl Pts',(0.500000000000005,0.499999999999996,6.49999999999999));
#1336=CARTESIAN_POINT('Ctrl Pts',(0.500000000000005,1.,6.49999999999999));
#1337=CARTESIAN_POINT('Ctrl Pts',(0.500000000000005,1.5,6.49999999999999));
#1338=CARTESIAN_POINT('Ctrl Pts',(1.13160017259065E-15,1.5,6.5));
#1339=CARTESIAN_POINT('Ctrl Pts',(-0.500000000000003,1.5,6.50000000000001));
#1340=CARTESIAN_POINT('Ctrl Pts',(-0.500000000000003,1.,6.50000000000001));
#1341=CARTESIAN_POINT('Ctrl Pts',(-0.199999999999998,1.,6.5));
#1342=CARTESIAN_POINT('Ctrl Pts',(-0.199999999999998,0.800000000000001,
6.5));
#1343=CARTESIAN_POINT('Ctrl Pts',(1.13160017259061E-15,0.800000000000001,
6.5));
#1344=CARTESIAN_POINT('Ctrl Pts',(0.2,0.800000000000001,6.49999999999999));
#1345=CARTESIAN_POINT('Ctrl Pts',(0.2,1.,6.49999999999999));
#1346=CARTESIAN_POINT('Ctrl Pts',(0.2,1.2,6.49999999999999));
#1347=CARTESIAN_POINT('Ctrl Pts',(1.13160017259061E-15,1.2,6.5));
#1348=CARTESIAN_POINT('Ctrl Pts',(-0.199999999999998,1.2,6.5));
#1349=CARTESIAN_POINT('Ctrl Pts',(-0.199999999999998,1.,6.5));
#1350=CARTESIAN_POINT('Origin',(-0.200000000000004,1.,6.2));
#1351=CARTESIAN_POINT('Origin',(0.,-2.23517418462826E-8,-3.));
#1352=CARTESIAN_POINT('',(2.10429055850567E-17,0.35,-3.));
#1353=CARTESIAN_POINT('',(1.95080101048751E-17,1.65,-3.));
#1354=CARTESIAN_POINT('',(2.1249526143661E-17,0.174999988824129,-3.));
#1355=CARTESIAN_POINT('Origin',(2.01936440284936E-17,1.,-3.));
#1356=CARTESIAN_POINT('Origin',(0.,-2.23517418462826E-8,4.));
#1357=CARTESIAN_POINT('',(0.799999959766865,1.,4.));
#1358=CARTESIAN_POINT('Origin',(2.01936440284936E-17,1.,4.));
#1359=CARTESIAN_POINT('',(0.599999964237213,1.,4.));
#1360=CARTESIAN_POINT('Origin',(2.01936440284936E-17,1.,4.));
#1361=CARTESIAN_POINT('Origin',(2.01936440284936E-17,1.,-3.));
#1362=CARTESIAN_POINT('',(0.799999959766865,1.,0.));
#1363=CARTESIAN_POINT('',(0.799999959766865,1.,-3.));
#1364=CARTESIAN_POINT('Origin',(2.01936440284936E-17,1.,0.));
#1365=CARTESIAN_POINT('Origin',(2.01936440284936E-17,1.,4.05));
#1366=CARTESIAN_POINT('',(0.549999964237213,1.,4.05));
#1367=CARTESIAN_POINT('Origin',(2.01936440284936E-17,1.,-3.));
#1368=CARTESIAN_POINT('',(-0.65,1.,0.));
#1369=CARTESIAN_POINT('Origin',(2.01936440284936E-17,1.,0.));
#1370=CARTESIAN_POINT('',(-0.65,1.,-1.));
#1371=CARTESIAN_POINT('',(-0.65,1.,-3.));
#1372=CARTESIAN_POINT('',(2.10429055850567E-17,0.35,-1.));
#1373=CARTESIAN_POINT('Origin',(2.01936440284936E-17,1.,-1.));
#1374=CARTESIAN_POINT('',(2.10429055850567E-17,0.35,-3.));
#1375=CARTESIAN_POINT('',(1.95080101048751E-17,1.65,-1.));
#1376=CARTESIAN_POINT('',(1.95080101048751E-17,1.65,-3.));
#1377=CARTESIAN_POINT('Origin',(2.01936440284936E-17,1.,-1.));
#1378=CARTESIAN_POINT('Origin',(-0.325,1.,-1.));
#1379=CARTESIAN_POINT('',(2.42897998067191E-17,-2.39999994635582,-1.));
#1380=CARTESIAN_POINT('Origin',(2.10429055850567E-17,0.35,-3.));
#1381=CARTESIAN_POINT('Origin',(0.,-1.,0.));
#1382=CARTESIAN_POINT('Origin',(0.,-1.,6.5));
#1383=CARTESIAN_POINT('',(-0.2,-1.,6.5));
#1384=CARTESIAN_POINT('Origin',(-2.01936440284936E-17,-1.,6.5));
#1385=CARTESIAN_POINT('Origin',(-2.01936440284936E-17,-1.,0.));
#1386=CARTESIAN_POINT('',(-0.5,-1.,6.2));
#1387=CARTESIAN_POINT('Origin',(-2.01936440284936E-17,-1.,6.2));
#1388=CARTESIAN_POINT('',(-0.5,-1.,4.1));
#1389=CARTESIAN_POINT('',(-0.5,-1.,0.));
#1390=CARTESIAN_POINT('',(0.5,-1.,4.1));
#1391=CARTESIAN_POINT('Origin',(-2.01936440284936E-17,-1.,4.1));
#1392=CARTESIAN_POINT('Origin',(-2.01936440284936E-17,-1.,4.1));
#1393=CARTESIAN_POINT('Ctrl Pts',(-0.500000000000002,-0.999999999999998,
6.2));
#1394=CARTESIAN_POINT('Ctrl Pts',(-0.500000000000002,-1.5,6.2));
#1395=CARTESIAN_POINT('Ctrl Pts',(-3.66894015169098E-15,-1.5,6.2));
#1396=CARTESIAN_POINT('Ctrl Pts',(0.499999999999994,-1.5,6.19999999999999));
#1397=CARTESIAN_POINT('Ctrl Pts',(0.499999999999994,-0.999999999999998,
6.19999999999999));
#1398=CARTESIAN_POINT('Ctrl Pts',(0.499999999999994,-0.5,6.19999999999999));
#1399=CARTESIAN_POINT('Ctrl Pts',(-3.66894015169101E-15,-0.5,6.19999999999999));
#1400=CARTESIAN_POINT('Ctrl Pts',(-0.500000000000002,-0.5,6.2));
#1401=CARTESIAN_POINT('Ctrl Pts',(-0.500000000000002,-0.999999999999998,
6.2));
#1402=CARTESIAN_POINT('Ctrl Pts',(-0.500000000000002,-0.999999999999997,
6.5));
#1403=CARTESIAN_POINT('Ctrl Pts',(-0.500000000000002,-1.5,6.50000000000001));
#1404=CARTESIAN_POINT('Ctrl Pts',(3.22031837996022E-17,-1.5,6.5));
#1405=CARTESIAN_POINT('Ctrl Pts',(0.500000000000002,-1.5,6.49999999999999));
#1406=CARTESIAN_POINT('Ctrl Pts',(0.500000000000002,-0.999999999999997,
6.49999999999999));
#1407=CARTESIAN_POINT('Ctrl Pts',(0.500000000000002,-0.499999999999996,
6.49999999999999));
#1408=CARTESIAN_POINT('Ctrl Pts',(3.22031837995715E-17,-0.499999999999996,
6.5));
#1409=CARTESIAN_POINT('Ctrl Pts',(-0.500000000000002,-0.499999999999996,
6.5));
#1410=CARTESIAN_POINT('Ctrl Pts',(-0.500000000000002,-0.999999999999997,
6.5));
#1411=CARTESIAN_POINT('Ctrl Pts',(-0.199999999999998,-0.999999999999997,
6.5));
#1412=CARTESIAN_POINT('Ctrl Pts',(-0.199999999999998,-1.2,6.5));
#1413=CARTESIAN_POINT('Ctrl Pts',(3.2203183799587E-17,-1.2,6.5));
#1414=CARTESIAN_POINT('Ctrl Pts',(0.199999999999998,-1.2,6.49999999999999));
#1415=CARTESIAN_POINT('Ctrl Pts',(0.199999999999998,-0.999999999999997,
6.49999999999999));
#1416=CARTESIAN_POINT('Ctrl Pts',(0.199999999999998,-0.8,6.49999999999999));
#1417=CARTESIAN_POINT('Ctrl Pts',(3.22031837995768E-17,-0.8,6.5));
#1418=CARTESIAN_POINT('Ctrl Pts',(-0.199999999999998,-0.8,6.5));
#1419=CARTESIAN_POINT('Ctrl Pts',(-0.199999999999998,-0.999999999999997,
6.5));
#1420=CARTESIAN_POINT('Origin',(-0.200000000000002,-0.999999999999998,6.2));
#1421=CARTESIAN_POINT('Origin',(0.,-2.23517418462826E-8,4.));
#1422=CARTESIAN_POINT('',(0.800000004470348,-1.,4.));
#1423=CARTESIAN_POINT('Origin',(-2.01936440284936E-17,-1.,4.));
#1424=CARTESIAN_POINT('',(0.600000008940697,-1.,4.));
#1425=CARTESIAN_POINT('Origin',(-2.01936440284936E-17,-1.,4.));
#1426=CARTESIAN_POINT('Origin',(-2.01936440284936E-17,-1.,-3.));
#1427=CARTESIAN_POINT('',(0.800000004470348,-1.,0.));
#1428=CARTESIAN_POINT('',(0.800000004470348,-1.,-3.));
#1429=CARTESIAN_POINT('Origin',(-2.01936440284936E-17,-1.,0.));
#1430=CARTESIAN_POINT('Origin',(-2.01936440284936E-17,-1.,4.05));
#1431=CARTESIAN_POINT('',(0.550000008940697,-1.,4.05));
#1432=CARTESIAN_POINT('Origin',(-2.01936440284936E-17,-1.,-3.));
#1433=CARTESIAN_POINT('',(-0.65,-1.,0.));
#1434=CARTESIAN_POINT('Origin',(-2.01936440284936E-17,-1.,0.));
#1435=CARTESIAN_POINT('',(-0.65,-1.,-3.));
#1436=CARTESIAN_POINT('',(-0.65,-1.,-3.));
#1437=CARTESIAN_POINT('',(2.34042832468745E-17,-1.65,-3.));
#1438=CARTESIAN_POINT('Origin',(-2.01936440284936E-17,-1.,-3.));
#1439=CARTESIAN_POINT('',(2.34042832468745E-17,-1.65,-1.));
#1440=CARTESIAN_POINT('',(2.34042832468745E-17,-1.65,-3.));
#1441=CARTESIAN_POINT('',(2.18693877666929E-17,-0.35,-1.));
#1442=CARTESIAN_POINT('Origin',(-2.01936440284936E-17,-1.,-1.));
#1443=CARTESIAN_POINT('',(2.18693877666929E-17,-0.35,-3.));
#1444=CARTESIAN_POINT('',(2.18693877666929E-17,-0.35,-3.));
#1445=CARTESIAN_POINT('Origin',(-2.01936440284936E-17,-1.,-3.));
#1446=CARTESIAN_POINT('Origin',(0.,-2.23517418462826E-8,-3.));
#1447=CARTESIAN_POINT('',(2.16627672344791E-17,-0.175000011175871,-3.));
#1448=CARTESIAN_POINT('Origin',(0.325,-1.,-1.));
#1449=CARTESIAN_POINT('',(2.42897998067191E-17,-2.39999994635582,-1.));
#1450=CARTESIAN_POINT('Origin',(2.18693877666929E-17,-0.35,-3.));
#1451=CARTESIAN_POINT('Origin',(0.,-1.,0.));
#1452=CARTESIAN_POINT('Origin',(-2.01936440284936E-17,-1.,-3.));
#1453=CARTESIAN_POINT('',(0.800000004470348,-1.,0.));
#1454=CARTESIAN_POINT('Origin',(-2.01936440284936E-17,-1.,0.));
#1455=CARTESIAN_POINT('',(0.800000004470348,-1.,3.));
#1456=CARTESIAN_POINT('',(0.800000004470348,-1.,-3.));
#1457=CARTESIAN_POINT('Origin',(-2.01936440284936E-17,-1.,3.));
#1458=CARTESIAN_POINT('Origin',(2.01936440284936E-17,1.,-3.));
#1459=CARTESIAN_POINT('',(0.799999959766865,1.,0.));
#1460=CARTESIAN_POINT('Origin',(2.01936440284936E-17,1.,0.));
#1461=CARTESIAN_POINT('',(0.799999959766865,1.,3.));
#1462=CARTESIAN_POINT('',(0.799999959766865,1.,-3.));
#1463=CARTESIAN_POINT('Origin',(2.01936440284936E-17,1.,3.));
#1464=CARTESIAN_POINT('Origin',(-1.32580107311441,-2.39443523204743,0.));
#1465=CARTESIAN_POINT('',(-1.32580107311441,-2.80575854099213,0.));
#1466=CARTESIAN_POINT('',(-1.32580107311441,-2.39443523204743,0.));
#1467=CARTESIAN_POINT('',(-1.32580107311442,-1.69721761602372,0.));
#1468=CARTESIAN_POINT('',(-1.32580107311441,-2.80575854099213,-0.1));
#1469=CARTESIAN_POINT('',(-1.32580107311441,-2.80575854099213,0.));
#1470=CARTESIAN_POINT('',(-1.32580107311441,-2.39443523204743,-0.1));
#1471=CARTESIAN_POINT('',(-1.32580107311441,-2.80575854099213,-0.1));
#1472=CARTESIAN_POINT('',(-1.32580107311441,-2.39443523204743,0.));
#1473=CARTESIAN_POINT('Origin',(-0.917547366122742,-2.39443523204743,0.));
#1474=CARTESIAN_POINT('',(-0.917547366122742,-2.39443523204743,0.));
#1475=CARTESIAN_POINT('',(-0.45877368306137,-2.39443523204743,0.));
#1476=CARTESIAN_POINT('',(-0.917547366122742,-2.39443523204743,-0.1));
#1477=CARTESIAN_POINT('',(-1.32580107311441,-2.39443523204743,-0.1));
#1478=CARTESIAN_POINT('',(-0.917547366122742,-2.39443523204743,0.));
#1479=CARTESIAN_POINT('Origin',(-0.917547366122742,-2.22253886378228,0.));
#1480=CARTESIAN_POINT('',(-0.917547366122742,-2.22253886378228,0.));
#1481=CARTESIAN_POINT('',(-0.917547366122743,-1.61126943189114,0.));
#1482=CARTESIAN_POINT('',(-0.917547366122742,-2.22253886378228,-0.1));
#1483=CARTESIAN_POINT('',(-0.917547366122742,-2.39443523204743,-0.1));
#1484=CARTESIAN_POINT('',(-0.917547366122742,-2.22253886378228,0.));
#1485=CARTESIAN_POINT('Origin',(-1.32580107311441,-2.22253886378228,0.));
#1486=CARTESIAN_POINT('',(-1.32580107311441,-2.22253886378228,0.));
#1487=CARTESIAN_POINT('',(-0.662900536557206,-2.22253886378228,0.));
#1488=CARTESIAN_POINT('',(-1.32580107311441,-2.22253886378228,-0.1));
#1489=CARTESIAN_POINT('',(-0.917547366122742,-2.22253886378228,-0.1));
#1490=CARTESIAN_POINT('',(-1.32580107311441,-2.22253886378228,0.));
#1491=CARTESIAN_POINT('Origin',(-1.32580107311441,-1.8142851195377,0.));
#1492=CARTESIAN_POINT('',(-1.32580107311441,-1.8142851195377,0.));
#1493=CARTESIAN_POINT('',(-1.32580107311442,-1.40714255976885,0.));
#1494=CARTESIAN_POINT('',(-1.32580107311441,-1.8142851195377,-0.1));
#1495=CARTESIAN_POINT('',(-1.32580107311441,-2.22253886378228,-0.1));
#1496=CARTESIAN_POINT('',(-1.32580107311441,-1.8142851195377,0.));
#1497=CARTESIAN_POINT('Origin',(-1.49974381784632,-1.8142851195377,0.));
#1498=CARTESIAN_POINT('',(-1.49974381784632,-1.8142851195377,0.));
#1499=CARTESIAN_POINT('',(-0.749871908923158,-1.8142851195377,0.));
#1500=CARTESIAN_POINT('',(-1.49974381784632,-1.8142851195377,-0.1));
#1501=CARTESIAN_POINT('',(-1.32580107311441,-1.8142851195377,-0.1));
#1502=CARTESIAN_POINT('',(-1.49974381784632,-1.8142851195377,0.));
#1503=CARTESIAN_POINT('Origin',(-1.49974381784632,-2.22253886378228,0.));
#1504=CARTESIAN_POINT('',(-1.49974381784632,-2.22253886378228,0.));
#1505=CARTESIAN_POINT('',(-1.49974381784632,-1.61126943189114,0.));
#1506=CARTESIAN_POINT('',(-1.49974381784632,-2.22253886378228,-0.1));
#1507=CARTESIAN_POINT('',(-1.49974381784632,-1.8142851195377,-0.1));
#1508=CARTESIAN_POINT('',(-1.49974381784632,-2.22253886378228,0.));
#1509=CARTESIAN_POINT('Origin',(-1.9079976365967,-2.22253886378228,0.));
#1510=CARTESIAN_POINT('',(-1.9079976365967,-2.22253886378228,0.));
#1511=CARTESIAN_POINT('',(-0.953998818298349,-2.22253886378228,0.));
#1512=CARTESIAN_POINT('',(-1.9079976365967,-2.22253886378228,-0.1));
#1513=CARTESIAN_POINT('',(-1.49974381784632,-2.22253886378228,-0.1));
#1514=CARTESIAN_POINT('',(-1.9079976365967,-2.22253886378228,0.));
#1515=CARTESIAN_POINT('Origin',(-1.9079976365967,-2.39443523204743,0.));
#1516=CARTESIAN_POINT('',(-1.9079976365967,-2.39443523204743,0.));
#1517=CARTESIAN_POINT('',(-1.9079976365967,-1.69721761602372,0.));
#1518=CARTESIAN_POINT('',(-1.9079976365967,-2.39443523204743,-0.1));
#1519=CARTESIAN_POINT('',(-1.9079976365967,-2.22253886378228,-0.1));
#1520=CARTESIAN_POINT('',(-1.9079976365967,-2.39443523204743,0.));
#1521=CARTESIAN_POINT('Origin',(-1.49974381784632,-2.39443523204743,0.));
#1522=CARTESIAN_POINT('',(-1.49974381784632,-2.39443523204743,0.));
#1523=CARTESIAN_POINT('',(-0.749871908923158,-2.39443523204743,0.));
#1524=CARTESIAN_POINT('',(-1.49974381784632,-2.39443523204743,-0.1));
#1525=CARTESIAN_POINT('',(-1.9079976365967,-2.39443523204743,-0.1));
#1526=CARTESIAN_POINT('',(-1.49974381784632,-2.39443523204743,0.));
#1527=CARTESIAN_POINT('Origin',(-1.49974381784632,-2.80575854099213,0.));
#1528=CARTESIAN_POINT('',(-1.49974381784632,-2.80575854099213,0.));
#1529=CARTESIAN_POINT('',(-1.49974381784632,-1.90287927049607,0.));
#1530=CARTESIAN_POINT('',(-1.49974381784632,-2.80575854099213,-0.1));
#1531=CARTESIAN_POINT('',(-1.49974381784632,-2.39443523204743,-0.1));
#1532=CARTESIAN_POINT('',(-1.49974381784632,-2.80575854099213,0.));
#1533=CARTESIAN_POINT('Origin',(-1.32580107311441,-2.80575854099213,0.));
#1534=CARTESIAN_POINT('',(-0.662900536557207,-2.80575854099213,0.));
#1535=CARTESIAN_POINT('',(-1.49974381784632,-2.80575854099213,-0.1));
#1536=CARTESIAN_POINT('Origin',(-1.41277250135972,-2.31002183026492,-0.1));
#1537=CARTESIAN_POINT('Origin',(1.48866053812567,1.01761779043247,0.));
#1538=CARTESIAN_POINT('',(1.18003711204229,1.01267833823568,0.));
#1539=CARTESIAN_POINT('',(1.48866053812567,1.01761779043247,0.));
#1540=CARTESIAN_POINT('',(0.728379246065139,1.00544965029514,0.));
#1541=CARTESIAN_POINT('',(1.18003711204229,1.01267833823568,-0.1));
#1542=CARTESIAN_POINT('',(1.18003711204229,1.01267833823568,0.));
#1543=CARTESIAN_POINT('',(1.48866053812567,1.01761779043247,-0.1));
#1544=CARTESIAN_POINT('',(1.18003711204229,1.01267833823568,-0.1));
#1545=CARTESIAN_POINT('',(1.48866053812567,1.01761779043247,0.));
#1546=CARTESIAN_POINT('Origin',(1.47356927983702,1.96053932330624,0.));
#1547=CARTESIAN_POINT('',(1.47356927983702,1.96053932330624,0.));
#1548=CARTESIAN_POINT('',(1.49706593197904,0.492437801790453,0.));
#1549=CARTESIAN_POINT('',(1.47356927983702,1.96053932330624,-0.1));
#1550=CARTESIAN_POINT('',(1.48866053812567,1.01761779043247,-0.1));
#1551=CARTESIAN_POINT('',(1.47356927983702,1.96053932330624,0.));
#1552=CARTESIAN_POINT('Origin',(1.16494585375363,1.95559987110945,0.));
#1553=CARTESIAN_POINT('',(1.16494585375363,1.95559987110945,0.));
#1554=CARTESIAN_POINT('',(0.558976274734793,1.94590145707051,0.));
#1555=CARTESIAN_POINT('',(1.16494585375363,1.95559987110945,-0.1));
#1556=CARTESIAN_POINT('',(1.47356927983702,1.96053932330624,-0.1));
#1557=CARTESIAN_POINT('',(1.16494585375363,1.95559987110945,0.));
#1558=CARTESIAN_POINT('Origin',(1.18003711204229,1.01267833823568,0.));
#1559=CARTESIAN_POINT('',(1.19598813503999,0.0160375831567799,0.));
#1560=CARTESIAN_POINT('',(1.16494585375363,1.95559987110945,-0.1));
#1561=CARTESIAN_POINT('Origin',(1.32680319593965,1.48660883077096,-0.1));
#1562=CARTESIAN_POINT('Origin',(-2.77555756156289E-16,5.55111512312578E-16,
3.));
#1563=CARTESIAN_POINT('',(-1.55,-2.35,3.));
#1564=CARTESIAN_POINT('',(-1.55,0.8,3.));
#1565=CARTESIAN_POINT('',(-1.55,-1.175,3.));
#1566=CARTESIAN_POINT('',(1.55,-2.35,3.));
#1567=CARTESIAN_POINT('',(0.775,-2.35,3.));
#1568=CARTESIAN_POINT('',(1.55,0.8,3.));
#1569=CARTESIAN_POINT('',(1.55,0.4,3.));
#1570=CARTESIAN_POINT('Origin',(0.,0.8,3.));
#1571=CARTESIAN_POINT('Origin',(0.,-1.,0.));
#1572=CARTESIAN_POINT('',(1.6,-3.,0.));
#1573=CARTESIAN_POINT('',(2.1,-2.5,0.));
#1574=CARTESIAN_POINT('Origin',(1.6,-2.5,0.));
#1575=CARTESIAN_POINT('',(-1.6,-3.,0.));
#1576=CARTESIAN_POINT('',(-1.6,-3.,0.));
#1577=CARTESIAN_POINT('',(-2.1,-2.5,0.));
#1578=CARTESIAN_POINT('Origin',(-1.6,-2.5,0.));
#1579=CARTESIAN_POINT('',(-2.1,0.900000000000001,0.));
#1580=CARTESIAN_POINT('',(-2.1,0.900000000000001,0.));
#1581=CARTESIAN_POINT('',(2.1,0.900000000000001,0.));
#1582=CARTESIAN_POINT('Origin',(0.,0.900000000000001,0.));
#1583=CARTESIAN_POINT('',(2.1,-2.5,0.));
#1584=CARTESIAN_POINT('Origin',(-1.6,-3.,0.));
#1585=CARTESIAN_POINT('',(1.6,-3.,8.));
#1586=CARTESIAN_POINT('',(1.6,-3.,0.));
#1587=CARTESIAN_POINT('',(-1.6,-3.,8.));
#1588=CARTESIAN_POINT('',(-1.6,-3.,8.));
#1589=CARTESIAN_POINT('',(-1.6,-3.,0.));
#1590=CARTESIAN_POINT('Origin',(1.6,-2.5,0.));
#1591=CARTESIAN_POINT('',(2.1,-2.5,8.));
#1592=CARTESIAN_POINT('',(2.1,-2.5,0.));
#1593=CARTESIAN_POINT('Origin',(1.6,-2.5,8.));
#1594=CARTESIAN_POINT('Origin',(2.1,-2.5,0.));
#1595=CARTESIAN_POINT('',(2.1,0.900000000000001,8.));
#1596=CARTESIAN_POINT('',(2.1,0.900000000000001,0.));
#1597=CARTESIAN_POINT('',(2.1,-2.5,8.));
#1598=CARTESIAN_POINT('Origin',(1.55,0.8,0.));
#1599=CARTESIAN_POINT('',(1.55,-2.35,8.));
#1600=CARTESIAN_POINT('',(1.55,-2.35,0.));
#1601=CARTESIAN_POINT('',(1.55,0.8,8.));
#1602=CARTESIAN_POINT('',(1.55,-2.35,8.));
#1603=CARTESIAN_POINT('',(1.55,0.8,0.));
#1604=CARTESIAN_POINT('Origin',(1.55,-2.35,0.));
#1605=CARTESIAN_POINT('',(-1.55,-2.35,8.));
#1606=CARTESIAN_POINT('',(-1.55,-2.35,0.));
#1607=CARTESIAN_POINT('',(-1.55,-2.35,8.));
#1608=CARTESIAN_POINT('Origin',(-1.55,-2.35,0.));
#1609=CARTESIAN_POINT('',(-1.55,0.8,8.));
#1610=CARTESIAN_POINT('',(-1.55,0.8,0.));
#1611=CARTESIAN_POINT('',(-1.55,0.8,8.));
#1612=CARTESIAN_POINT('Origin',(0.,0.8,0.));
#1613=CARTESIAN_POINT('Origin',(0.,0.8,8.));
#1614=CARTESIAN_POINT('Origin',(-1.6,-2.5,0.));
#1615=CARTESIAN_POINT('',(-2.1,-2.5,8.));
#1616=CARTESIAN_POINT('Origin',(-1.6,-2.5,8.));
#1617=CARTESIAN_POINT('',(-2.1,-2.5,0.));
#1618=CARTESIAN_POINT('Origin',(-2.1,0.900000000000001,0.));
#1619=CARTESIAN_POINT('',(-2.1,0.900000000000001,8.));
#1620=CARTESIAN_POINT('',(-2.1,0.900000000000001,8.));
#1621=CARTESIAN_POINT('',(-2.1,0.900000000000001,0.));
#1622=CARTESIAN_POINT('Origin',(0.,0.900000000000001,0.));
#1623=CARTESIAN_POINT('Origin',(0.,0.900000000000001,8.));
#1624=CARTESIAN_POINT('Origin',(0.,5.55111512312578E-16,8.));
#1625=CARTESIAN_POINT('',(10.,0.,0.));
#1626=UNCERTAINTY_MEASURE_WITH_UNIT(LENGTH_MEASURE(0.01),#1632,
'DISTANCE_ACCURACY_VALUE',
'Maximum model space distance between geometric entities at asserted c
onnectivities');
#1627=UNCERTAINTY_MEASURE_WITH_UNIT(LENGTH_MEASURE(0.01),#1632,
'DISTANCE_ACCURACY_VALUE',
'Maximum model space distance between geometric entities at asserted c
onnectivities');
#1628=UNCERTAINTY_MEASURE_WITH_UNIT(LENGTH_MEASURE(0.01),#1632,
'DISTANCE_ACCURACY_VALUE',
'Maximum model space distance between geometric entities at asserted c
onnectivities');
#1629=(
GEOMETRIC_REPRESENTATION_CONTEXT(3)
GLOBAL_UNCERTAINTY_ASSIGNED_CONTEXT((#1626))
GLOBAL_UNIT_ASSIGNED_CONTEXT((#1632,#1634,#1635))
REPRESENTATION_CONTEXT('','3D')
);
#1630=(
GEOMETRIC_REPRESENTATION_CONTEXT(3)
GLOBAL_UNCERTAINTY_ASSIGNED_CONTEXT((#1627))
GLOBAL_UNIT_ASSIGNED_CONTEXT((#1632,#1634,#1635))
REPRESENTATION_CONTEXT('','3D')
);
#1631=(
GEOMETRIC_REPRESENTATION_CONTEXT(3)
GLOBAL_UNCERTAINTY_ASSIGNED_CONTEXT((#1628))
GLOBAL_UNIT_ASSIGNED_CONTEXT((#1632,#1634,#1635))
REPRESENTATION_CONTEXT('','3D')
);
#1632=(
LENGTH_UNIT()
NAMED_UNIT(*)
SI_UNIT(.MILLI.,.METRE.)
);
#1633=(
LENGTH_UNIT()
NAMED_UNIT(*)
SI_UNIT($,.METRE.)
);
#1634=(
NAMED_UNIT(*)
PLANE_ANGLE_UNIT()
SI_UNIT($,.RADIAN.)
);
#1635=(
NAMED_UNIT(*)
SI_UNIT($,.STERADIAN.)
SOLID_ANGLE_UNIT()
);
#1636=SHAPE_DEFINITION_REPRESENTATION(#1638,#1641);
#1637=SHAPE_DEFINITION_REPRESENTATION(#1639,#1642);
#1638=PRODUCT_DEFINITION_SHAPE('',$,#1644);
#1639=PRODUCT_DEFINITION_SHAPE('',$,#1645);
#1640=PRODUCT_DEFINITION_SHAPE($,$,#14);
#1641=SHAPE_REPRESENTATION('',(#946,#1037),#1629);
#1642=SHAPE_REPRESENTATION('',(#947),#1630);
#1643=PRODUCT_DEFINITION_CONTEXT('part definition',#1651,'design');
#1644=PRODUCT_DEFINITION('BT2.0 A30 Connector v1',
'BT2.0 A30 Connector v1',#1646,#1643);
#1645=PRODUCT_DEFINITION('BT2.0 Male Retrofit','BT2.0 Male Retrofit',#1647,
#1643);
#1646=PRODUCT_DEFINITION_FORMATION('',$,#1653);
#1647=PRODUCT_DEFINITION_FORMATION('',$,#1654);
#1648=PRODUCT_RELATED_PRODUCT_CATEGORY('BT2.0 A30 Connector v1',
'BT2.0 A30 Connector v1',(#1653));
#1649=PRODUCT_RELATED_PRODUCT_CATEGORY('BT2.0 Male Retrofit',
'BT2.0 Male Retrofit',(#1654));
#1650=APPLICATION_PROTOCOL_DEFINITION('international standard',
'automotive_design',2009,#1651);
#1651=APPLICATION_CONTEXT(
'Core Data for Automotive Mechanical Design Process');
#1652=PRODUCT_CONTEXT('part definition',#1651,'mechanical');
#1653=PRODUCT('BT2.0 A30 Connector v1','BT2.0 A30 Connector v1',$,(#1652));
#1654=PRODUCT('BT2.0 Male Retrofit','BT2.0 Male Retrofit',$,(#1652));
#1655=PRESENTATION_STYLE_ASSIGNMENT((#1658));
#1656=PRESENTATION_STYLE_ASSIGNMENT((#1659));
#1657=PRESENTATION_STYLE_ASSIGNMENT((#1660));
#1658=SURFACE_STYLE_USAGE(.BOTH.,#1661);
#1659=SURFACE_STYLE_USAGE(.BOTH.,#1662);
#1660=SURFACE_STYLE_USAGE(.BOTH.,#1663);
#1661=SURFACE_SIDE_STYLE('',(#1664));
#1662=SURFACE_SIDE_STYLE('',(#1665));
#1663=SURFACE_SIDE_STYLE('',(#1666));
#1664=SURFACE_STYLE_FILL_AREA(#1667);
#1665=SURFACE_STYLE_FILL_AREA(#1668);
#1666=SURFACE_STYLE_FILL_AREA(#1669);
#1667=FILL_AREA_STYLE('Steel - Satin',(#1670));
#1668=FILL_AREA_STYLE('Opaque(243,203,124)',(#1671));
#1669=FILL_AREA_STYLE('Opaque(255,255,255)',(#1672));
#1670=FILL_AREA_STYLE_COLOUR('Steel - Satin',#1673);
#1671=FILL_AREA_STYLE_COLOUR('Opaque(243,203,124)',#1674);
#1672=FILL_AREA_STYLE_COLOUR('Opaque(255,255,255)',#1675);
#1673=COLOUR_RGB('Steel - Satin',0.627450980392157,0.627450980392157,0.627450980392157);
#1674=COLOUR_RGB('Opaque(243,203,124)',0.952941176470588,0.796078431372549,
0.486274509803922);
#1675=COLOUR_RGB('Opaque(255,255,255)',1.,1.,1.);
ENDSEC;
END-ISO-10303-21;
